<mxfile host="app.diagrams.net" agent="Mozilla/5.0 (Windows NT 10.0; Win64; x64) AppleWebKit/537.36 (KHTML, like Gecko) Chrome/130.0.0.0 Safari/537.36 OPR/115.0.0.0" version="25.0.3">
  <diagram name="Page-1" id="OJx3Y8fNpaljh_xx6Z1j">
    <mxGraphModel dx="2392" dy="1298" grid="1" gridSize="10" guides="1" tooltips="1" connect="1" arrows="1" fold="1" page="1" pageScale="1" pageWidth="850" pageHeight="1100" math="0" shadow="0">
      <root>
        <mxCell id="0" />
        <mxCell id="1" parent="0" />
        <mxCell id="CIHnsiqsybDm5zCaYKHE-28" value="User" style="shape=umlActor;verticalLabelPosition=bottom;verticalAlign=top;html=1;" parent="1" vertex="1">
          <mxGeometry x="130" y="220" width="30" height="60" as="geometry" />
        </mxCell>
        <mxCell id="CIHnsiqsybDm5zCaYKHE-31" value="" style="endArrow=none;dashed=1;html=1;rounded=0;" parent="1" edge="1">
          <mxGeometry width="50" height="50" relative="1" as="geometry">
            <mxPoint x="144.5" y="680" as="sourcePoint" />
            <mxPoint x="144.5" y="300" as="targetPoint" />
          </mxGeometry>
        </mxCell>
        <mxCell id="CIHnsiqsybDm5zCaYKHE-36" value="Login" style="shape=umlBoundary;whiteSpace=wrap;html=1;" parent="1" vertex="1">
          <mxGeometry x="200" y="230" width="80" height="60" as="geometry" />
        </mxCell>
        <mxCell id="CIHnsiqsybDm5zCaYKHE-40" value="Pesan" style="shape=umlBoundary;whiteSpace=wrap;html=1;" parent="1" vertex="1">
          <mxGeometry x="440" y="232.5" width="80" height="60" as="geometry" />
        </mxCell>
        <mxCell id="CIHnsiqsybDm5zCaYKHE-41" value="Notifikasi" style="shape=umlBoundary;whiteSpace=wrap;html=1;" parent="1" vertex="1">
          <mxGeometry x="560" y="230" width="80" height="60" as="geometry" />
        </mxCell>
        <mxCell id="CIHnsiqsybDm5zCaYKHE-51" value="" style="endArrow=none;dashed=1;html=1;rounded=0;" parent="1" edge="1">
          <mxGeometry width="50" height="50" relative="1" as="geometry">
            <mxPoint x="240" y="680" as="sourcePoint" />
            <mxPoint x="239.71" y="300" as="targetPoint" />
          </mxGeometry>
        </mxCell>
        <mxCell id="CIHnsiqsybDm5zCaYKHE-53" value="" style="endArrow=none;dashed=1;html=1;rounded=0;" parent="1" edge="1">
          <mxGeometry width="50" height="50" relative="1" as="geometry">
            <mxPoint x="480" y="680" as="sourcePoint" />
            <mxPoint x="479.71" y="300" as="targetPoint" />
          </mxGeometry>
        </mxCell>
        <mxCell id="CIHnsiqsybDm5zCaYKHE-54" value="" style="endArrow=none;dashed=1;html=1;rounded=0;" parent="1" source="CIHnsiqsybDm5zCaYKHE-92" edge="1">
          <mxGeometry width="50" height="50" relative="1" as="geometry">
            <mxPoint x="599.71" y="680" as="sourcePoint" />
            <mxPoint x="599.71" y="300" as="targetPoint" />
          </mxGeometry>
        </mxCell>
        <mxCell id="CIHnsiqsybDm5zCaYKHE-69" style="edgeStyle=orthogonalEdgeStyle;rounded=0;orthogonalLoop=1;jettySize=auto;html=1;curved=0;exitX=1.015;exitY=1.029;exitDx=0;exitDy=0;exitPerimeter=0;strokeColor=#ff0000;" parent="1" target="CIHnsiqsybDm5zCaYKHE-58" edge="1">
          <mxGeometry relative="1" as="geometry">
            <mxPoint x="230" y="350" as="targetPoint" />
            <mxPoint x="150.14999999999998" y="340.15999999999997" as="sourcePoint" />
            <Array as="points">
              <mxPoint x="150" y="350" />
            </Array>
          </mxGeometry>
        </mxCell>
        <mxCell id="CIHnsiqsybDm5zCaYKHE-57" value="" style="html=1;points=[[0,0,0,0,5],[0,1,0,0,-5],[1,0,0,0,5],[1,1,0,0,-5]];perimeter=orthogonalPerimeter;outlineConnect=0;targetShapes=umlLifeline;portConstraint=eastwest;newEdgeStyle={&quot;curved&quot;:0,&quot;rounded&quot;:0};strokeColor=#ff0000;" parent="1" vertex="1">
          <mxGeometry x="140" y="300" width="10" height="50" as="geometry" />
        </mxCell>
        <mxCell id="CIHnsiqsybDm5zCaYKHE-73" style="edgeStyle=orthogonalEdgeStyle;rounded=0;orthogonalLoop=1;jettySize=auto;html=1;curved=0;strokeColor=#ff0000;" parent="1" source="CIHnsiqsybDm5zCaYKHE-58" target="CIHnsiqsybDm5zCaYKHE-58" edge="1">
          <mxGeometry relative="1" as="geometry">
            <mxPoint x="250" y="380" as="targetPoint" />
            <Array as="points">
              <mxPoint x="320" y="350" />
              <mxPoint x="320" y="370" />
            </Array>
          </mxGeometry>
        </mxCell>
        <mxCell id="CIHnsiqsybDm5zCaYKHE-58" value="" style="html=1;points=[[0,0,0,0,5],[0,1,0,0,-5],[1,0,0,0,5],[1,1,0,0,-5]];perimeter=orthogonalPerimeter;outlineConnect=0;targetShapes=umlLifeline;portConstraint=eastwest;newEdgeStyle={&quot;curved&quot;:0,&quot;rounded&quot;:0};strokeColor=#FF0000;" parent="1" vertex="1">
          <mxGeometry x="235" y="300" width="10" height="90" as="geometry" />
        </mxCell>
        <mxCell id="CIHnsiqsybDm5zCaYKHE-59" value="login controler" style="ellipse;shape=umlControl;whiteSpace=wrap;html=1;" parent="1" vertex="1">
          <mxGeometry x="800" y="232.5" width="80" height="60" as="geometry" />
        </mxCell>
        <mxCell id="CIHnsiqsybDm5zCaYKHE-61" value="" style="endArrow=none;dashed=1;html=1;rounded=0;" parent="1" source="CIHnsiqsybDm5zCaYKHE-79" edge="1">
          <mxGeometry width="50" height="50" relative="1" as="geometry">
            <mxPoint x="859.47" y="681.5" as="sourcePoint" />
            <mxPoint x="840" y="300" as="targetPoint" />
          </mxGeometry>
        </mxCell>
        <mxCell id="CIHnsiqsybDm5zCaYKHE-67" value="Data Notifikasi" style="ellipse;shape=umlEntity;whiteSpace=wrap;html=1;" parent="1" vertex="1">
          <mxGeometry x="1060" y="234" width="80" height="60" as="geometry" />
        </mxCell>
        <mxCell id="CIHnsiqsybDm5zCaYKHE-68" value="" style="endArrow=none;dashed=1;html=1;rounded=0;" parent="1" edge="1">
          <mxGeometry width="50" height="50" relative="1" as="geometry">
            <mxPoint x="1099.47" y="681.5" as="sourcePoint" />
            <mxPoint x="1099.47" y="301.5" as="targetPoint" />
          </mxGeometry>
        </mxCell>
        <mxCell id="CIHnsiqsybDm5zCaYKHE-71" value="&lt;span style=&quot;font-weight: normal;&quot;&gt;&lt;font style=&quot;font-size: 10px;&quot;&gt;1.SubmitLoginInfo( )&lt;/font&gt;&lt;/span&gt;" style="text;align=center;fontStyle=1;verticalAlign=middle;spacingLeft=3;spacingRight=3;strokeColor=none;rotatable=0;points=[[0,0.5],[1,0.5]];portConstraint=eastwest;html=1;" parent="1" vertex="1">
          <mxGeometry x="150" y="350" width="80" height="26" as="geometry" />
        </mxCell>
        <mxCell id="CIHnsiqsybDm5zCaYKHE-74" value="&lt;span style=&quot;font-weight: normal;&quot;&gt;&lt;font style=&quot;font-size: 10px;&quot;&gt;2.Validasi( )&lt;/font&gt;&lt;/span&gt;" style="text;align=left;fontStyle=1;verticalAlign=middle;spacingLeft=3;spacingRight=3;strokeColor=none;rotatable=0;points=[[0,0.5],[1,0.5]];portConstraint=eastwest;html=1;" parent="1" vertex="1">
          <mxGeometry x="245" y="324" width="80" height="26" as="geometry" />
        </mxCell>
        <mxCell id="CIHnsiqsybDm5zCaYKHE-80" value="" style="endArrow=none;dashed=1;html=1;rounded=0;" parent="1" target="CIHnsiqsybDm5zCaYKHE-79" edge="1">
          <mxGeometry width="50" height="50" relative="1" as="geometry">
            <mxPoint x="840" y="680" as="sourcePoint" />
            <mxPoint x="859.47" y="301.5" as="targetPoint" />
          </mxGeometry>
        </mxCell>
        <mxCell id="CIHnsiqsybDm5zCaYKHE-150" style="edgeStyle=orthogonalEdgeStyle;rounded=0;orthogonalLoop=1;jettySize=auto;html=1;curved=0;strokeColor=#ff0000;" parent="1" source="CIHnsiqsybDm5zCaYKHE-79" target="CIHnsiqsybDm5zCaYKHE-99" edge="1">
          <mxGeometry relative="1" as="geometry">
            <Array as="points">
              <mxPoint x="620" y="420" />
              <mxPoint x="620" y="420" />
            </Array>
          </mxGeometry>
        </mxCell>
        <mxCell id="CIHnsiqsybDm5zCaYKHE-79" value="" style="html=1;points=[[0,0,0,0,5],[0,1,0,0,-5],[1,0,0,0,5],[1,1,0,0,-5]];perimeter=orthogonalPerimeter;outlineConnect=0;targetShapes=umlLifeline;portConstraint=eastwest;newEdgeStyle={&quot;curved&quot;:0,&quot;rounded&quot;:0};strokeColor=#ff0000;" parent="1" vertex="1">
          <mxGeometry x="835" y="340" width="10" height="110" as="geometry" />
        </mxCell>
        <mxCell id="CIHnsiqsybDm5zCaYKHE-81" style="edgeStyle=orthogonalEdgeStyle;rounded=0;orthogonalLoop=1;jettySize=auto;html=1;curved=0;strokeColor=#ff0000;" parent="1" source="CIHnsiqsybDm5zCaYKHE-58" target="CIHnsiqsybDm5zCaYKHE-79" edge="1">
          <mxGeometry relative="1" as="geometry">
            <Array as="points">
              <mxPoint x="700" y="345" />
              <mxPoint x="700" y="345" />
            </Array>
          </mxGeometry>
        </mxCell>
        <mxCell id="CIHnsiqsybDm5zCaYKHE-82" value="&lt;span style=&quot;font-weight: normal;&quot;&gt;&lt;font style=&quot;font-size: 10px;&quot;&gt;3.LoginControler( )&amp;nbsp;&lt;/font&gt;&lt;/span&gt;" style="text;align=left;fontStyle=1;verticalAlign=middle;spacingLeft=3;spacingRight=3;strokeColor=none;rotatable=0;points=[[0,0.5],[1,0.5]];portConstraint=eastwest;html=1;" parent="1" vertex="1">
          <mxGeometry x="490" y="360" width="80" height="26" as="geometry" />
        </mxCell>
        <mxCell id="CIHnsiqsybDm5zCaYKHE-85" value="&lt;span style=&quot;font-weight: normal;&quot;&gt;&lt;font style=&quot;font-size: 10px;&quot;&gt;5. Notifikasi ( )&lt;/font&gt;&lt;/span&gt;" style="text;align=left;fontStyle=1;verticalAlign=middle;spacingLeft=3;spacingRight=3;strokeColor=none;rotatable=0;points=[[0,0.5],[1,0.5]];portConstraint=eastwest;html=1;" parent="1" vertex="1">
          <mxGeometry x="620" y="434" width="80" height="26" as="geometry" />
        </mxCell>
        <mxCell id="CIHnsiqsybDm5zCaYKHE-96" value="Error" style="shape=umlBoundary;whiteSpace=wrap;html=1;" parent="1" vertex="1">
          <mxGeometry x="320" y="232.5" width="80" height="60" as="geometry" />
        </mxCell>
        <mxCell id="CIHnsiqsybDm5zCaYKHE-97" value="" style="endArrow=none;dashed=1;html=1;rounded=0;" parent="1" source="CIHnsiqsybDm5zCaYKHE-99" edge="1">
          <mxGeometry width="50" height="50" relative="1" as="geometry">
            <mxPoint x="359.57000000000005" y="680" as="sourcePoint" />
            <mxPoint x="359.57000000000005" y="300" as="targetPoint" />
          </mxGeometry>
        </mxCell>
        <mxCell id="CIHnsiqsybDm5zCaYKHE-101" value="&lt;span style=&quot;font-weight: normal;&quot;&gt;&lt;font style=&quot;font-size: 10px;&quot;&gt;4. Error( )&amp;nbsp;&lt;/font&gt;&lt;/span&gt;&lt;span style=&quot;font-size: 10px; font-weight: 400;&quot;&gt;(redirect)&lt;/span&gt;" style="text;align=left;fontStyle=1;verticalAlign=middle;spacingLeft=3;spacingRight=3;strokeColor=none;rotatable=0;points=[[0,0.5],[1,0.5]];portConstraint=eastwest;html=1;" parent="1" vertex="1">
          <mxGeometry x="380" y="390" width="80" height="26" as="geometry" />
        </mxCell>
        <mxCell id="CIHnsiqsybDm5zCaYKHE-102" value="Alternative&amp;nbsp;&lt;div&gt;Event:&amp;nbsp;&lt;span style=&quot;background-color: initial; text-wrap-mode: nowrap; font-size: 10px; text-align: left;&quot;&gt;( Gagal Login&lt;/span&gt;&lt;span style=&quot;background-color: initial; text-wrap-mode: nowrap; font-size: 10px; text-align: left;&quot;&gt;)&amp;nbsp;&lt;/span&gt;&lt;br&gt;&lt;/div&gt;" style="shape=note;whiteSpace=wrap;html=1;backgroundOutline=1;darkOpacity=0.05;size=24;" parent="1" vertex="1">
          <mxGeometry x="190" y="406" width="120" height="74" as="geometry" />
        </mxCell>
        <mxCell id="CIHnsiqsybDm5zCaYKHE-103" value="" style="endArrow=none;dashed=1;html=1;dashPattern=1 3;strokeWidth=2;rounded=0;entryX=1;entryY=1;entryDx=0;entryDy=0;entryPerimeter=0;exitX=0;exitY=0;exitDx=0;exitDy=5;exitPerimeter=0;" parent="1" source="CIHnsiqsybDm5zCaYKHE-99" target="CIHnsiqsybDm5zCaYKHE-102" edge="1">
          <mxGeometry width="50" height="50" relative="1" as="geometry">
            <mxPoint x="350" y="460" as="sourcePoint" />
            <mxPoint x="240" y="450" as="targetPoint" />
          </mxGeometry>
        </mxCell>
        <mxCell id="CIHnsiqsybDm5zCaYKHE-104" value="Alternative&amp;nbsp;&lt;div style=&quot;&quot;&gt;Event:&lt;span style=&quot;font-size: 10px; text-wrap-mode: nowrap;&quot;&gt;&amp;nbsp;( Tidak ada&amp;nbsp;&lt;/span&gt;&lt;/div&gt;&lt;div style=&quot;&quot;&gt;&lt;span style=&quot;font-size: 10px; text-wrap-mode: nowrap;&quot;&gt;notifikasi baru)&amp;nbsp;&lt;/span&gt;&lt;/div&gt;" style="shape=note;whiteSpace=wrap;html=1;backgroundOutline=1;darkOpacity=0.05;size=18;align=center;" parent="1" vertex="1">
          <mxGeometry x="190" y="510" width="120" height="74" as="geometry" />
        </mxCell>
        <mxCell id="CIHnsiqsybDm5zCaYKHE-106" value="" style="endArrow=none;dashed=1;html=1;rounded=0;" parent="1" target="CIHnsiqsybDm5zCaYKHE-99" edge="1">
          <mxGeometry width="50" height="50" relative="1" as="geometry">
            <mxPoint x="359.57000000000005" y="680" as="sourcePoint" />
            <mxPoint x="359.57000000000005" y="300" as="targetPoint" />
          </mxGeometry>
        </mxCell>
        <mxCell id="CIHnsiqsybDm5zCaYKHE-99" value="" style="html=1;points=[[0,0,0,0,5],[0,1,0,0,-5],[1,0,0,0,5],[1,1,0,0,-5]];perimeter=orthogonalPerimeter;outlineConnect=0;targetShapes=umlLifeline;portConstraint=eastwest;newEdgeStyle={&quot;curved&quot;:0,&quot;rounded&quot;:0};gradientColor=none;fillColor=none;strokeColor=#ff0000;" parent="1" vertex="1">
          <mxGeometry x="355" y="416" width="10" height="26" as="geometry" />
        </mxCell>
        <mxCell id="CIHnsiqsybDm5zCaYKHE-108" value="" style="endArrow=none;dashed=1;html=1;rounded=0;" parent="1" target="CIHnsiqsybDm5zCaYKHE-92" edge="1">
          <mxGeometry width="50" height="50" relative="1" as="geometry">
            <mxPoint x="600" y="570" as="sourcePoint" />
            <mxPoint x="599.71" y="300" as="targetPoint" />
          </mxGeometry>
        </mxCell>
        <mxCell id="CIHnsiqsybDm5zCaYKHE-92" value="" style="html=1;points=[[0,0,0,0,5],[0,1,0,0,-5],[1,0,0,0,5],[1,1,0,0,-5]];perimeter=orthogonalPerimeter;outlineConnect=0;targetShapes=umlLifeline;portConstraint=eastwest;newEdgeStyle={&quot;curved&quot;:0,&quot;rounded&quot;:0};gradientColor=none;fillColor=none;strokeColor=#ff0000;" parent="1" vertex="1">
          <mxGeometry x="595" y="430" width="10" height="40" as="geometry" />
        </mxCell>
        <mxCell id="CIHnsiqsybDm5zCaYKHE-114" value="" style="endArrow=none;dashed=1;html=1;dashPattern=1 3;strokeWidth=2;rounded=0;exitX=1;exitY=1;exitDx=0;exitDy=0;exitPerimeter=0;entryX=0;entryY=0;entryDx=0;entryDy=5;entryPerimeter=0;" parent="1" source="CIHnsiqsybDm5zCaYKHE-104" target="CIHnsiqsybDm5zCaYKHE-87" edge="1">
          <mxGeometry width="50" height="50" relative="1" as="geometry">
            <mxPoint x="310" y="590" as="sourcePoint" />
            <mxPoint x="355" y="490" as="targetPoint" />
          </mxGeometry>
        </mxCell>
        <mxCell id="CIHnsiqsybDm5zCaYKHE-119" value="Alternative&amp;nbsp;&lt;div&gt;Event:&lt;span style=&quot;background-color: initial; font-size: 10px; text-align: left; text-wrap-mode: nowrap;&quot;&gt;( Notifikasi tidak&amp;nbsp;&lt;/span&gt;&lt;/div&gt;&lt;div&gt;&lt;span style=&quot;background-color: initial; font-size: 10px; text-align: left; text-wrap-mode: nowrap;&quot;&gt;Ditemukan)&amp;nbsp;&lt;/span&gt;&lt;/div&gt;" style="shape=note;whiteSpace=wrap;html=1;backgroundOutline=1;darkOpacity=0.05;size=18;" parent="1" vertex="1">
          <mxGeometry x="180" y="610" width="120" height="74" as="geometry" />
        </mxCell>
        <mxCell id="CIHnsiqsybDm5zCaYKHE-120" value="" style="endArrow=none;dashed=1;html=1;dashPattern=1 3;strokeWidth=2;rounded=0;exitX=1;exitY=1;exitDx=0;exitDy=0;exitPerimeter=0;entryX=0;entryY=0;entryDx=0;entryDy=5;entryPerimeter=0;" parent="1" source="CIHnsiqsybDm5zCaYKHE-119" target="vBO4EaEbnEps3-d2bCsq-26" edge="1">
          <mxGeometry width="50" height="50" relative="1" as="geometry">
            <mxPoint x="310" y="660" as="sourcePoint" />
            <mxPoint x="355" y="550" as="targetPoint" />
          </mxGeometry>
        </mxCell>
        <mxCell id="CIHnsiqsybDm5zCaYKHE-134" value="" style="html=1;points=[[0,0,0,0,5],[0,1,0,0,-5],[1,0,0,0,5],[1,1,0,0,-5]];perimeter=orthogonalPerimeter;outlineConnect=0;targetShapes=umlLifeline;portConstraint=eastwest;newEdgeStyle={&quot;curved&quot;:0,&quot;rounded&quot;:0};strokeColor=#ff0000;" parent="1" vertex="1">
          <mxGeometry x="1095" y="520" width="10" height="44" as="geometry" />
        </mxCell>
        <mxCell id="vBO4EaEbnEps3-d2bCsq-1" value="Detail Notifikasi" style="shape=umlBoundary;whiteSpace=wrap;html=1;" vertex="1" parent="1">
          <mxGeometry x="680" y="230" width="80" height="60" as="geometry" />
        </mxCell>
        <mxCell id="vBO4EaEbnEps3-d2bCsq-2" value="" style="endArrow=none;dashed=1;html=1;rounded=0;" edge="1" parent="1" source="vBO4EaEbnEps3-d2bCsq-17">
          <mxGeometry width="50" height="50" relative="1" as="geometry">
            <mxPoint x="719" y="680" as="sourcePoint" />
            <mxPoint x="719.47" y="300" as="targetPoint" />
          </mxGeometry>
        </mxCell>
        <mxCell id="vBO4EaEbnEps3-d2bCsq-4" style="edgeStyle=orthogonalEdgeStyle;rounded=0;orthogonalLoop=1;jettySize=auto;html=1;curved=0;entryX=1;entryY=0;entryDx=0;entryDy=5;entryPerimeter=0;strokeColor=#ff0000;" edge="1" parent="1" source="CIHnsiqsybDm5zCaYKHE-79" target="CIHnsiqsybDm5zCaYKHE-92">
          <mxGeometry relative="1" as="geometry">
            <Array as="points">
              <mxPoint x="800" y="435" />
              <mxPoint x="800" y="435" />
            </Array>
          </mxGeometry>
        </mxCell>
        <mxCell id="vBO4EaEbnEps3-d2bCsq-5" value="Notifikasi controler" style="ellipse;shape=umlControl;whiteSpace=wrap;html=1;" vertex="1" parent="1">
          <mxGeometry x="930" y="234" width="80" height="60" as="geometry" />
        </mxCell>
        <mxCell id="vBO4EaEbnEps3-d2bCsq-6" value="" style="endArrow=none;dashed=1;html=1;rounded=0;" edge="1" parent="1" source="vBO4EaEbnEps3-d2bCsq-8">
          <mxGeometry width="50" height="50" relative="1" as="geometry">
            <mxPoint x="969.5500000000001" y="680" as="sourcePoint" />
            <mxPoint x="969.5500000000001" y="300" as="targetPoint" />
          </mxGeometry>
        </mxCell>
        <mxCell id="vBO4EaEbnEps3-d2bCsq-7" value="" style="endArrow=none;dashed=1;html=1;rounded=0;" edge="1" parent="1" target="vBO4EaEbnEps3-d2bCsq-8">
          <mxGeometry width="50" height="50" relative="1" as="geometry">
            <mxPoint x="969.5500000000001" y="680" as="sourcePoint" />
            <mxPoint x="969.5500000000001" y="300" as="targetPoint" />
          </mxGeometry>
        </mxCell>
        <mxCell id="vBO4EaEbnEps3-d2bCsq-8" value="" style="html=1;points=[[0,0,0,0,5],[0,1,0,0,-5],[1,0,0,0,5],[1,1,0,0,-5]];perimeter=orthogonalPerimeter;outlineConnect=0;targetShapes=umlLifeline;portConstraint=eastwest;newEdgeStyle={&quot;curved&quot;:0,&quot;rounded&quot;:0};strokeColor=#ff0000;" vertex="1" parent="1">
          <mxGeometry x="965" y="455" width="10" height="185" as="geometry" />
        </mxCell>
        <mxCell id="vBO4EaEbnEps3-d2bCsq-9" style="edgeStyle=orthogonalEdgeStyle;rounded=0;orthogonalLoop=1;jettySize=auto;html=1;curved=0;entryX=0;entryY=0;entryDx=0;entryDy=5;entryPerimeter=0;strokeColor=#ff0000;" edge="1" parent="1" source="CIHnsiqsybDm5zCaYKHE-92" target="vBO4EaEbnEps3-d2bCsq-8">
          <mxGeometry relative="1" as="geometry">
            <Array as="points">
              <mxPoint x="700" y="460" />
              <mxPoint x="700" y="460" />
            </Array>
          </mxGeometry>
        </mxCell>
        <mxCell id="vBO4EaEbnEps3-d2bCsq-10" value="&lt;span style=&quot;font-weight: normal;&quot;&gt;&lt;font style=&quot;font-size: 10px;&quot;&gt;6. NotifikasiControler ( )&lt;/font&gt;&lt;/span&gt;" style="text;align=left;fontStyle=1;verticalAlign=middle;spacingLeft=3;spacingRight=3;strokeColor=none;rotatable=0;points=[[0,0.5],[1,0.5]];portConstraint=eastwest;html=1;" vertex="1" parent="1">
          <mxGeometry x="605" y="474" width="80" height="26" as="geometry" />
        </mxCell>
        <mxCell id="vBO4EaEbnEps3-d2bCsq-11" style="edgeStyle=orthogonalEdgeStyle;rounded=0;orthogonalLoop=1;jettySize=auto;html=1;curved=0;entryX=1;entryY=0;entryDx=0;entryDy=5;entryPerimeter=0;strokeColor=#ff0000;" edge="1" parent="1" source="vBO4EaEbnEps3-d2bCsq-8" target="CIHnsiqsybDm5zCaYKHE-87">
          <mxGeometry relative="1" as="geometry">
            <Array as="points">
              <mxPoint x="850" y="495" />
              <mxPoint x="850" y="495" />
            </Array>
          </mxGeometry>
        </mxCell>
        <mxCell id="vBO4EaEbnEps3-d2bCsq-12" value="&lt;span style=&quot;font-weight: normal;&quot;&gt;&lt;font style=&quot;font-size: 10px;&quot;&gt;7. Pesan ( )&lt;/font&gt;&lt;/span&gt;" style="text;align=left;fontStyle=1;verticalAlign=middle;spacingLeft=3;spacingRight=3;strokeColor=none;rotatable=0;points=[[0,0.5],[1,0.5]];portConstraint=eastwest;html=1;" vertex="1" parent="1">
          <mxGeometry x="750" y="494" width="80" height="26" as="geometry" />
        </mxCell>
        <mxCell id="vBO4EaEbnEps3-d2bCsq-13" value="" style="endArrow=none;dashed=1;html=1;rounded=0;" edge="1" parent="1">
          <mxGeometry width="50" height="50" relative="1" as="geometry">
            <mxPoint x="599.71" y="680" as="sourcePoint" />
            <mxPoint x="599.71" y="567" as="targetPoint" />
          </mxGeometry>
        </mxCell>
        <mxCell id="vBO4EaEbnEps3-d2bCsq-14" style="edgeStyle=orthogonalEdgeStyle;rounded=0;orthogonalLoop=1;jettySize=auto;html=1;curved=0;strokeColor=#ff0000;" edge="1" parent="1" source="vBO4EaEbnEps3-d2bCsq-8" target="vBO4EaEbnEps3-d2bCsq-17">
          <mxGeometry relative="1" as="geometry">
            <mxPoint x="730" y="530" as="targetPoint" />
            <Array as="points">
              <mxPoint x="770" y="630" />
              <mxPoint x="770" y="630" />
            </Array>
          </mxGeometry>
        </mxCell>
        <mxCell id="vBO4EaEbnEps3-d2bCsq-15" value="&lt;span style=&quot;font-weight: normal;&quot;&gt;&lt;font style=&quot;font-size: 10px;&quot;&gt;12. DetailNotifikasi ( )&lt;/font&gt;&lt;/span&gt;" style="text;align=left;fontStyle=1;verticalAlign=middle;spacingLeft=3;spacingRight=3;strokeColor=none;rotatable=0;points=[[0,0.5],[1,0.5]];portConstraint=eastwest;html=1;" vertex="1" parent="1">
          <mxGeometry x="728" y="623.5" width="80" height="26" as="geometry" />
        </mxCell>
        <mxCell id="vBO4EaEbnEps3-d2bCsq-16" value="" style="endArrow=none;dashed=1;html=1;rounded=0;" edge="1" parent="1" target="vBO4EaEbnEps3-d2bCsq-17">
          <mxGeometry width="50" height="50" relative="1" as="geometry">
            <mxPoint x="719" y="680" as="sourcePoint" />
            <mxPoint x="719.47" y="300" as="targetPoint" />
          </mxGeometry>
        </mxCell>
        <mxCell id="vBO4EaEbnEps3-d2bCsq-17" value="" style="html=1;points=[[0,0,0,0,5],[0,1,0,0,-5],[1,0,0,0,5],[1,1,0,0,-5]];perimeter=orthogonalPerimeter;outlineConnect=0;targetShapes=umlLifeline;portConstraint=eastwest;newEdgeStyle={&quot;curved&quot;:0,&quot;rounded&quot;:0};strokeColor=#ff0000;" vertex="1" parent="1">
          <mxGeometry x="715" y="623.5" width="10" height="60.5" as="geometry" />
        </mxCell>
        <mxCell id="vBO4EaEbnEps3-d2bCsq-20" style="edgeStyle=orthogonalEdgeStyle;rounded=0;orthogonalLoop=1;jettySize=auto;html=1;curved=0;entryX=0;entryY=0;entryDx=0;entryDy=5;entryPerimeter=0;strokeColor=#ff0000;" edge="1" parent="1" source="vBO4EaEbnEps3-d2bCsq-8" target="CIHnsiqsybDm5zCaYKHE-134">
          <mxGeometry relative="1" as="geometry">
            <Array as="points">
              <mxPoint x="1010" y="525" />
              <mxPoint x="1010" y="525" />
            </Array>
          </mxGeometry>
        </mxCell>
        <mxCell id="vBO4EaEbnEps3-d2bCsq-21" value="&lt;span style=&quot;font-weight: normal;&quot;&gt;&lt;font style=&quot;font-size: 10px;&quot;&gt;8. FetchDetailNotifikasi ( )&amp;nbsp;&lt;/font&gt;&lt;/span&gt;" style="text;align=left;fontStyle=1;verticalAlign=middle;spacingLeft=3;spacingRight=3;strokeColor=none;rotatable=0;points=[[0,0.5],[1,0.5]];portConstraint=eastwest;html=1;" vertex="1" parent="1">
          <mxGeometry x="976" y="500" width="80" height="26" as="geometry" />
        </mxCell>
        <mxCell id="vBO4EaEbnEps3-d2bCsq-22" value="" style="endArrow=block;dashed=1;endFill=0;endSize=12;html=1;rounded=0;exitX=0;exitY=1;exitDx=0;exitDy=-5;exitPerimeter=0;strokeColor=#ff0000;" edge="1" parent="1" source="CIHnsiqsybDm5zCaYKHE-134" target="vBO4EaEbnEps3-d2bCsq-8">
          <mxGeometry width="160" relative="1" as="geometry">
            <mxPoint x="990" y="570" as="sourcePoint" />
            <mxPoint x="1150" y="570" as="targetPoint" />
          </mxGeometry>
        </mxCell>
        <mxCell id="vBO4EaEbnEps3-d2bCsq-23" value="&lt;span style=&quot;font-weight: normal;&quot;&gt;&lt;font style=&quot;font-size: 10px;&quot;&gt;9. Return&lt;/font&gt;&lt;/span&gt;" style="text;align=left;fontStyle=1;verticalAlign=middle;spacingLeft=3;spacingRight=3;strokeColor=none;rotatable=0;points=[[0,0.5],[1,0.5]];portConstraint=eastwest;html=1;" vertex="1" parent="1">
          <mxGeometry x="1000" y="553.5" width="80" height="26" as="geometry" />
        </mxCell>
        <mxCell id="vBO4EaEbnEps3-d2bCsq-26" value="" style="html=1;points=[[0,0,0,0,5],[0,1,0,0,-5],[1,0,0,0,5],[1,1,0,0,-5]];perimeter=orthogonalPerimeter;outlineConnect=0;targetShapes=umlLifeline;portConstraint=eastwest;newEdgeStyle={&quot;curved&quot;:0,&quot;rounded&quot;:0};strokeColor=#ff0000;" vertex="1" parent="1">
          <mxGeometry x="355" y="573.5" width="10" height="50" as="geometry" />
        </mxCell>
        <mxCell id="vBO4EaEbnEps3-d2bCsq-28" style="edgeStyle=orthogonalEdgeStyle;rounded=0;orthogonalLoop=1;jettySize=auto;html=1;curved=0;strokeColor=#ff0000;" edge="1" parent="1" source="vBO4EaEbnEps3-d2bCsq-8">
          <mxGeometry relative="1" as="geometry">
            <mxPoint x="365" y="585" as="targetPoint" />
            <Array as="points">
              <mxPoint x="850" y="585" />
              <mxPoint x="850" y="585" />
            </Array>
          </mxGeometry>
        </mxCell>
        <mxCell id="vBO4EaEbnEps3-d2bCsq-29" value="&lt;span style=&quot;font-weight: normal;&quot;&gt;&lt;font style=&quot;font-size: 10px;&quot;&gt;11. Pesan ( )&lt;/font&gt;&lt;/span&gt;" style="text;align=left;fontStyle=1;verticalAlign=middle;spacingLeft=3;spacingRight=3;strokeColor=none;rotatable=0;points=[[0,0.5],[1,0.5]];portConstraint=eastwest;html=1;" vertex="1" parent="1">
          <mxGeometry x="610" y="564" width="80" height="26" as="geometry" />
        </mxCell>
        <mxCell id="CIHnsiqsybDm5zCaYKHE-87" value="" style="html=1;points=[[0,0,0,0,5],[0,1,0,0,-5],[1,0,0,0,5],[1,1,0,0,-5]];perimeter=orthogonalPerimeter;outlineConnect=0;targetShapes=umlLifeline;portConstraint=eastwest;newEdgeStyle={&quot;curved&quot;:0,&quot;rounded&quot;:0};gradientColor=none;fillColor=default;strokeColor=#ff0000;" parent="1" vertex="1">
          <mxGeometry x="475" y="490" width="10" height="30" as="geometry" />
        </mxCell>
        <mxCell id="vBO4EaEbnEps3-d2bCsq-31" value="" style="shape=image;verticalLabelPosition=bottom;labelBackgroundColor=default;verticalAlign=top;aspect=fixed;imageAspect=0;image=data:image/png,iVBORw0KGgoAAAANSUhEUgAAAfsAAAIWCAYAAABQuSQTAAAAAXNSR0IArs4c6QAAAARnQU1BAACxjwv8YQUAAAAJcEhZcwAADsMAAA7DAcdvqGQAAIGESURBVHhe7b3/i13bm+d1rn+CONiTiZmQyvygIIOK6TYkcQhj6qKC9hgxyUcxgkYqchkGYtI/xOHDkO62rheGy8dOMApGbFL3YmycRiWJQ5hP6hLHiK2DMoKkQhkzmZYWhmHoboYZiPu1st/nPvVk73P2+Vrn7Hq/YGWvr8961pe9nr3W3pXzxceKgTHGGGN6yz9QX40xxhjTU2zsjTHGmJ4zPMb/4osvSoQxxhhj1otxb+QPGPv/9tXfLJHGrCL/4tk/6jlqjDEJ1sZxxt7H+MYYY0zPsbE3xhhjeo6NvTHGGNNzOhn7v/7XXpd3Arh/51/9Z+rYT7z8y//NMA23TH73w/99oO4//+eu1imDwf1vfqUxHmhDTEPOf/2bv1GnmnVj0fMTmciJMG8kU3Uwj5Q2z/mEbNpojDHT0snY/2N/8kz5MOr2X3gw+Jt/Y78YUnHhT//LJe2f/zP/5tI/nvqFY3+81PlH/9jJottf+Is7dcpgcPPWfzj4+sFfOhCvh4N/4hf/2VIOd+X6nxv825d/afD//u7/U/KY9WPe8zOWh//0v/ofixyBIf+T/9S5odz/43/7q8XPfKTs7/xPf6XOOR+QTRuNMWZaJj7G/7du3h3897/1X3y201kH7v9HvzL4J3/xT5UHASFD8bt/49OuzKw3s85Pyo2bC3/tf/mh9n16qIzzCT9zzBhjVomJjf0/+o//02VB/frPbw2PLTM61pRTPh23aoeNIy7mj8Tj9rzbmhTqZMf1p/+Ff62OOUg8FTDrS5f5CcwnzS0duXOlHPOEeB2dZz/p//n9e8VPHZrXTei4X68X2u4NUBx5VJ/ulVFtMcaYcUz1gd6/8q//e2X38h/82St1zEH+y/9kuxyhs2Mm3289flAWq9tb/1JJp5yOQP/ivT87PAblOF4LLwveHz1+ssQji93aLAve//XX/9dy/Yf+yLFyNf1l3PzUgyNz6z978leL4WbeUY4HBcqSxqlP/gaAeNLJhx80r5vgwYA6eBUATfcGlAeNOp4HDsErJmOMmZWpjD2wE87vRwULm94x/sIf++Ofrsf+eFnMQAvfP/wL/0gx6DoGxS94R6rd9j/4R/7hcjWmK6PmJw+Of+qf+zPFz7zEcD/9S79ZwhnN1TbivI7wDQg7cow3eUTTvSG+e/QXy5UyysODgjHGzMrUxh74IGrU+1EWO9JngR3PuN1NfEhoQzv6/+/3PpSr6T9N81OnQ/EB8o/8wh+rffND817H8Zl8b3Cq8Dff75f4fJpgjDGzMpOxZ/fNUXw8dgS9p2SHQvo0xPegXXY3v/e7f6P2/cj/+b//z0Mjz06J1wR/+b/7voQz6Gz6RdP81C5br3VElwfGSeC0gIeNfMQ/6t5g1088zPqNijHGRGYy9sARPEZUsHPSe8pZ+Cv/w2+VxZAdzzj46I73rnEXxW6Oo1kdh8Kfu/tt0S0bdnZSN//9H7+oNv0hz0/IDwA8AOrDzXnu8nnY4L28DPeoe4MTLM3ff+PfvVOuxhgzLzr/EA4GkoUKWCzjnxuxiPGhkeJiXhZa3p3+qc0/M/grz36rxAG7Hi24LIi8v9SxJrsivqrWrkgygIUyvgMVGPe4gFOm7X2rTgxEm0yzWmhH3MQk8xNifuabHirJq9dGcY4C8yS+UmKO8QAZ5yn/h0Ocx/yZnuqhPH/+me8N9OX7lZiXdkZdYNT9aYw5urA2jvshHP/qnVkbRhl7Y4w5qnQx9jMf4xtjjDFmtbGxN8YYY3qOjb0xxhjTc2zsjTHGmJ5jY2+MMcb0HBt7Y4wxpufY2BtjjDE9x8beGGOM6Tk29sYYY0zPOfA/6BljjDFm/Rj3P+gdMPbjMhtzmHiOGmPM53RZG32Mb4wxxvQcG3tjjDGm59jYG2OMMT2ns7E/ffp0eS/Q5H744Yc613R8+eWXg6+//roOjeft27elXq7T8t1335U2ZYiPbYt6xT6I8dInpiFn1n4x3Wman03jaxYH8557eV1gjuR7NM4f0riKpvzTkmVHRqVNSts6lxm1Bk+jD/nlVol59u3awQd6ELytbG9vf9zc3KxDnyBMWdKmYWtra6byi2Bvb6/oxDWDnjF+Z2en5OUqyJPjzOzQp6PI85P8GxsbdcgcdVhrRsHc2d3dLX7mTbx/CTOflL4otPaMm+urzKh+NIuhy3yZ+Rj/6dOng+omGty5c2eqnfb9+/cH1eSoQ+vH1atXB5WRGVy5cqWOGQxu3749qCb74N27d3WMOQwYl2rxnOkEyPSDtl1r5NmzZ7VvMHjz5s2Be5rwMjh16lRZO9aZUf1oDo+5vLO/detWuT558qRcIR6rxqMvxbUdc3OcRLqOnnQ0qHjK5KMYHUEpD1ehY/mbN28WJ+Zx5IhsuHz5crlGzp07V4y+OTxOnDhR+z6heYOLR5uaG8yJnAaaV9HpAYJyOS3WQz6Fo1zl030SjVGUmXWJkMYclH6a3yqr+SkUj5P+5EFO1lmoT3CSD5TJ/UW68iBDslSeutrqiX086r4kva3fQPHKB+jEZuTBgwclnnqjftIJzp8/P2yP+qYJ1aH2xn6SLFA9yCGP2jxKtoh9pbYAZRUf+wp/1AMI5zykISP2HboQ10TWVXklS33Q1o+AX3rFtjTprDwqo35TnlieuhUf65MuyJd+kNtypKh3+J2OAfIxaYTyOibjqmMcjnB0lEp5xZNffmSSBsTrmJyyhGPefMyl1wAxD37Jk75RD8lta4vqkB4R5CpedZvlMK6v8/wkv8Ycol9zDkc+nOYMfh09RpnML9Li/JRMzZk8T5vyciVN6ZqPoHICv3SJoJNkUKd0Ux3ondsrXdQmlcGpjVx1H5MuP6gu1R3lqx+VX3JxIH3a6pEstZ+4DHkkM/cbkK6+UprkUFdui+SImJ8r4dhGpeNiPERZpNFeoE7i1S6uTbIjSldfqW+B8ooHtZl6yKN8oD5QfuRKL+Kin3zqu0jWVXlxpCldbQelCekIcVyadCav4pBJfuJUP2XUHvWpwK96YpuVR37J6hOxH9oY5uiSmcmhTsxQXjcT/uwYmLbyxGngM01l4gAC6Zq4EMvEiRYZ1RZNojiBBeUU36azWQzj+pqxIU90QotMdBp/xlFzF+KcaUrTQpbnEH6Vy3OI+LjIkCY5eT5H2uYvxLRR9SktO8h6xfZyzWVoMzTpFcuOa3/Mm6Gc+iYT02K/NfUh46E6cn1ZP8j1Zp1JR0bbuiFIVz/lekWWHWlqi3RrmuOSH+sVcY42yRVN4ymyrjHvuH5sqjOOS5POo8rH9mSiXk1yYVS/rzO5j5uYyzG+jqYuXLgw9FeDT+1Dx7sojrV5h5OPXIAjNohHNNMSj28fPXpU3qtTZzy2GgW6duHkyZPlqjabw6e6yQ/MO8H3EzmN703Gce3atcHz58/r0Kd5fezYseLn9U1+P3n8+PE6NBs6hqS+Wfnw4UO5xrbjxsG8rhbMA2UW+WqKI1baPA3v378fVIt4HfpE1/t4Elin4phHdNQc0/kmSa8P4nH6pKht+/v75RupOCbU0QVeLVIWXXDLWLeWMS5N9wp9wqsb4uMx/lFmLsb+m2++KVc+xNBAaoHJsCAyQSEOAotK9dRV3vXMCgu79GCCU1/1hFgGf5KHiaY2vHjxYihb7+rjtwqCG8mTbHXgAXCaj6yYP/F9I3NU4881Lp43btwo+WcFWffu3SvzNi+U06CHk0kXd9qHcVk0MpIvX74crg2TwkMWi31uox7I5wXrCGOeDTdz5NKlS0V/HiojxOF4COi64cjoIZP2zGKkMYLoQhvQd9Eselza7hXmLnHUzcNW2/cIR4mZjT2Tns5kERRM9uvXr9ehTx+JMNhcZWwZoAwPC5SdxkhihMXDhw/Ljgx0U7II55twFNwM+cEDvbTQA34eUniIiDcxbeVG6vrEbRbPmTNnyo0fx6nLPCM/c1kLdvyymAWERUtpcdereaIHRk6YqH/c7g6ZLFpdTh26gi7IjO3t0nZO6ri3dc/qHp43PCxzb85yv3B/5zaiux7I52n00RPDLQNC/zC2TQ+T6CNDx1oxCep3+pz1iHE8e/bsgbqhy1gC8jR++qh60Ywbl1kYda/oPqPP6DtTUS1SheBtpOrUkqfJNRHzV51d4niHUt3UB8qRpnBO//bbb4d+4kHvcHDUAaTFcsgRUX7UI8c1EcuOyht1wkkvM1/o2zby/GwijxPhPBfiPOL9Hk5huaa5KBfHPs4f/EqLumb5EMPKS75I1lP+HI76xDy0O99LTfdFjMNBrhtiW3OZrE+upzKUw7DycEW/iOJxuc0ixsXysa3ff//9Z/liGJ2ifNob6879BjFdftqJU1h5s+wmYh0aC5HbTv/l/ofcz8iMY0cYou6KE1nXPPby43K/Rr1jvOpo0jnqkuU39VtMV1nyxbYrb1P5vkCbxtGLX73jKe7ixYv+U7eecxhzlN1D/jth4jgpYNfO0ap28aDd2DyO840xpgtd1sa5vLM3po9w/MrHnRneLWPgm74vefz4sQ29MWblWHtjz7sg3mHl9+bGzAoGfXt7uzw1R6f3nTs7O+WdYUzTtyLGGLNK9OIY3xwNPEeNMeZzuqyNPsY3xhhjeo6NvTHGGNNzbOyNMcaYnmNjb4wxxvQcG3tjjDGm59jYG2OMMT3Hxt4YY4zpOTb2xhhjTM+xsTfGGGN6jo29McYY03Ns7I2ZAH5hcZV+g4Ff2eO/ypwUfuSHcvqt9cOGPh33W/9NdC23au1dtXkkVq2fBL80efr06Tr0+bwnLf7G/yysah/Mio29MSPgh5YiT58+XchPKed6usBi1PTLe13gR374v7T187zIOizjwyLND1lNyiTlcnsPE/141yrCDzt1ZZo5Ow0Y9vzrk/yypP4veB6c9vb2in8erNJcmSc29sa0gAF88OBBHVocLGbPnz+vQ91hMdrd3a1Ds/HNN9/UvuVz5cqV8uuCkzJtucPm/v37g83NzTq0WnQ1msu6NwDDzi9MtsED+CQPKUcVG3vTGzh60/EeLu5UWZwUjxM6BmaXGNOQowWEOMmKx4VcCcc6qUdEmXJ590weducssqRLNjqpjOLUBmRwzTurqIfKoJ/iYn7lBepi4WaXrLiI8kb5+EVsJ7IEfnSl3pgmnXJfgNqGi0hGWzkR+y3qor7T+MR6cIK2oJ/qIxzbh5MM9Ydk42K/ZFRn1EuoPC62T/NN7cpjLlQWXaQXZQXhOH65DzUmT548qWM+0dR25DTdG13GKPYVDvmC8CgdI5SL7YuoLepn5EgmTkgX8pOHMEiH3vGxJniNWUlGzdFq8SnpylPteIufK5Autra2iqt2C8MyhIF81W6x+CVDVLuxEqac0nDEK11yKuNd0rhClJtBXtSPfMRB1EH1qQ6I6ZSLaciQbsqHPtJN5YB8TfrFvJJFPpUlXfFAO6gXPVSOsOSQjp84yQDJlA7IlFzyKl5yuALxykcb1Y/KRxzgj+WiX2OjPsJRpyBdcqiLtkk+TnUSH/sigjzlUz1qE1eNW+wXZKkOyqic9I5IH6XF+rhKDkhObJN00bjFvon5pKdkiFFjFKF8bHdXHZv6T2HATx7VHSEc2xPbSnzUV/4sY9Xpou8wx7o1zhw9xs1R0rU4gBYxLQ7RaaEgPS7QceFTuYgWFYgLELB4tC2GyFRaJsvBH3XFIS8uSkL1xEW0iVw26xfbnWnqB8LEUwZ/dGpnlqkykGWSL45DTCdesuU0BrlchHyqr6nvRNQzj0Vm3Bi36YJM6QKxzkiWSTm1dVQbclpuB2lN9RMX842qY1TbkUc4OundRlcdIefNYfzoFuOaiDJjeyK5betAF319jG96iz6wef/+fTl2rOb70L1586akLQreM1InR4Kwv78/OHnyZPGPo1poy7v4qC/yRsEx/IsXL+rQQTiiRJd5Inm0q1owD+jKO+lZOXbsWO0blLGqFvcDdfC+vg0dPY9Dx7hdP5Yj77TvqRnTcXAMPu0Hl5MS740ujGv7pGPEEXv+6C4z6Qdy6Ec/6zg+0jTWzFPKEN/0aqVv2Nib3sINfuLEicHx48c7f3g0T+7du1cWbxYTdOn6FT+GtOsiLFhcWXDje8747nHe7UceBpkHmKbFdVY+fPgwfKDgneq7d++KfxRa0F++fFn6YxTIvHTpUslX7fbq2Gb0vpy8PNhMS9uY6uHkwoULc/vgchy6N2DU3Oja9q5jpPfnd+/eHfnRHUQdu4C8atdexjUyaqyJw/EQEO+dPmJjb3rFq1evypWFghuY3YV2xfHjprYPnSJxdzkp1P/o0aPhYsIXw23wMBJhYYq7HoyBTghGQX18ZEfd8Pjx47JAd3nI6LKLkg7ow6JJmbNnz5Z+Jk506dsm4q6LByUcXLx48UC70CPWJ/i4DL3GnSxQHgPX5XRH82jWhyXGIY4pMmkT7WDcMFKjdsLj0PjxkATIROe4Y226N1Snxuz169flyoPWqLbne6PrGD18+LAY5baTqiYdJ0FzXYZ71FjTZulL//eeaiEqBK8xK8m4OUo67+S44uL7v+qGH8bjqgWnOIUpVy3Iw7De61WLXgmTJj/uN37jN4Z+4smvMHlB4ejQowmlq97YDvygMA45uU1614hDhxiOun///fcH4iH2RdZRcqJOkVgWR/ncl7H+nF/EPiRPJMqTzrnPc3+oTvRXmtoW9ZG/qQ6I7Vben/zkJ8M4XJ5LTcQ6yaOxjmVzHvmb+jgT9ccf20BclBfvjThPlEfyYxnphmzI4bb+i8QxU3nlxd+kY+7bHI5lSJNcHMSw/OiByzrEvlDcOoC+4/iCf6qMw6MaY1aVcXOU9OpmHft+e1mws8k7E3Yci/hPeRYJuyNeR6zz+sAOrlq8j+wat2r3RhProOOq0sV++xjfmAXQ9MEPhv7y5ct1yCwTjrerHWAdMuboYWNvegEf4QA7UHaihw3vjXlHyxO3HEz6hfFhw45YX4irDeuEPjCjDaO+m+gzq3ZvNLEOOq47PsY3a4PnqDHGfE6XtdE7e2OMMabn2NgbY4wxPcfG3hhjjOk5NvbGGGNMz7GxN8YYY3qOjb0xxhjTc2zsjTHGmJ5z4O/sjTHGGLN+jPs7e/+nOmZt8Bw1xpjP8X+qY4wxxhgbe2OMMabv2NgbY4wxPWdqY8/PdTb9jKcxhwW/0Ma7KxxzkzDzVPD78vp1rcNiFXQwxhw9pjb2Dx8+HDx79qwsqJNw8+bN2mfMfLl06dJgZ2enfKhy9+7dwcbGRp3yiStXrgzevHlTh5YPP93Jz94aY8yymcrYs2jdu3ev+J88eVKuXeDB4MGDB3XImPnB3Nrb2xucOXOmhM+dO1fCqwQ68TBijDHLZipj//jx47JL2traGrx48aKOPQjHqDpS5eiSBwTttIjT8SrxyhePN3UkSz6uPhEwozh16lSZX+zuBXG3b9+uQ5+/etIcZX6SxlVzkfnHnIthzVXNRear0kfNT81l3Lt37+rYT8T7JOqGPJzm/6ij/yg/ypL+utekL+0A9Yd0+OVf/uWR+Y0xa8zHmuAdS2Xky3V3d7eUq3ZQJSxI397eLn6u1SJc/Movcnhzc3OYl3ic6jImzpUmmIdt86baUZd45hgw9zRHiZOffLEs8TkM5IuykJ3vA0EaeYD5He8H+aW79MKPU334qbMJZCgNXaUXxLaB6lB/KCza8htjVhfu03EMc3TJDCwS8eZnoYmLAyCraeGjXKyHhSkupHHBk79tATVHj65zlDlFXs0lwTzNBjqjeSeQFQ1yk8EdNVepM85xykteJuqb741o0DOxHNcof5Txjv0hbOyNWT+4T8cx8TH+o0ePBufPny/He7hqgTtwlM+RInCEOg7ynjx5sg51K2PMOO7fv8/MH1SGa3D9+vU69iC8P6+M6XAex3lLOR1da34Sfv369fCbAMGRd2Vc69Dn7O/v17529PpgWmjHq1eviv/9+/cjj/yNMUeTiYw9C+LFixfLQipXPfUf+CpfBrvLez7yNr3zP3bsWO0zpjv5vTlf5PMw2oYeCjCW8V0/cxzjiRG+fPlySSPM+/Y4v2WgR9UBujcyxCPj5cuXRY9puXXr1uDOnTtFFl/7P336tE4xxphPTGTsv/nmm7L4RdghsRMiTRDW1/rA7oeFLRvxa9eulQcFFlXgSlnv8M008JcemkvAh6TMpyYw1voQDWMZOXv2bPnTUhl35ml+KEU2DwnxA8Am8hzHsPNwwEdx/CUL+vHQMQs8jMQH8Aj663RBOnAy1/YAMml+Y8yaUC0OheBthPeA5Mn5eK+o+JgW85NHKF5x8UOh+K5Rcbimd6Hm6MFcGIXej2vexPlEmuLJw3voytAO4/J7aeLiO/IcJr/KxrneNFdj3dQpvcireFy8NxSHP+rZ9N4+pud8UU/JJS7ed5QXbfmNMasL9+k4/Kt3Zm3wHG2GHTh/Chvh1GLcqYMxph90WRun+jt7Y8xqgFHn1UCEVxQnTpyoQ8YYUz0QeGdv1gXP0Wb4+j5+JLi5uemP9Iw5QnRZG23szdrgOWqMMZ/TZW30Mb4xxhjTc2zsjTHGmJ5jY2+MMcb0HBt7Y4wxpufY2BtjjDE9x8beGGOM6Tk29sYYY0zPOfB39sYYY4xZP8b9nb3/Ux2zNniOGmPM5/g/1THGGGOMjb0xxhjTd2zsjTHGmJ7T2djzy1q8F4iOuFWFn/788ssv69Cn3/xeZX3NbKzb/FwFut4TN2/eLK4L87zPkIM8Y8zsdDb2b968GWxvb5efz+RDABw/q7mKCyoLxJ07d+rQJ65cuVLaIMjD736bfrBO83MVYO5fvXq1DrXDQ/ODBw/q0Gi6yuwKY8p9a4yZnZmO8VlcWVDfvn1bx6wGLBDoNoq7d+/WPtNXVnV+rgLnzp0b7Ozs1KF2bt++Pdja2qpDo+kq0xizfGYy9idOnKh9n+DolJ0AVx2hK4zLR4GKx8UFua2MjgjZQTSVi/GZeKxPOkbg/PnzwzjkqGwur+NE8pLW9UjTHC55fsb5EXf8OqbWvMunARr36DTvKJfT8vxUOMpVPuLwU7eIMrMuEeVjbuKPcxiIx685DjHPu3fv6thPxHbGMqKtf8ahNuJoc0Txck19BLQPN60Oxhx5PtYEbyvVTunj5uZmHfpUZmNjo/i5Eo7pu7u7H6tdQR36lJ84IL/8lFG+pjpIIy/+WEcsVxnvksYVYr5qt3EgDIRVfy6LTMJAGfzKLz2U1ywPjUkbo+YnRD/5yI/T+OIH/MwZiDLz2JNHMjWH2uZUzMuVNKVrfoLKCfzSJUI+zX2u8ktH0dQn0hE9pBNxbW3R/RD7R2mZ2E7AL/3VTpXVGADXXE55ScOfdWjqF2OOItwP4xjm6JI53nRyEcJxEdAiER0yyBNv7EhcHEALhPyxXFzkuGohAPxxkcthZErXnAakS4+okxZCrma5aB60wTiSJzqheRSdxjzOI4jj3ZTWNm/wt80T4uPcJU1yuBJuIuoSaZuHWVbUEX9sS9YpEvUb1T+ZKLOpXegiWVGO2hOZVgdjjhr53mli4mP86mZF6tCNgiPDaoE5kJ93gO/fv289hqtu+sHx48fr0OCAfxQ6Vp2G/f39walTp+rQJ6rFpPaZdaJtfnJkndOePn1ap7Zz7dq1wfPnz+vQp/l57Nix4r98+fLg2bNnxQ98UNZ1vo5DR//U1wTzlXuLeRqPu0fBPB+Hjv7nAfd5vo/ifXbjxo3By5cvi//Dhw++54xZIDO9sx8HN3bTAsOCGBfJCDf8q1ev6tAnui4CXRazJk6ePHlgQRfzWrjN4cP7+/jXGF3ho7P4zrnaTQ4NFtdqtzlMw3iRf1aQde/evfJAMmru8+BMHow+3590oe2hWO/yMb7InAfcPzys5Dq53wD9+dKfetG/6R40xsyHhRr7CxculJtZuw5uej6w0YKYP0oCFkz+bE4LxOPHj0vcOK5fv36grhcvXpQHCsnNxEWUHRqLkvSRjHks3GY1OHPmzIExhra5ESE/c0unAfFPwdgFY7iUhvESeiBgxwqPHj0q9Td9+BZBJnNz3KkD94f0j/Xq1EH3z8OHD4f3AacU+KkDMOzS6cmTJ+Xk4/79+yVtHnD/0JbYz9yj3G9AvdSv/ou7fmPMnKluskLwNlLdtCWPXCam6z0b8J6wqVx1kx+Ij+/feDeneL2n0/s/HHVFucoTy/FuEAej8iILonycQIbi0DHmoQ1medDnbYybn5DHmHCeG3m885jjNK+yPJzmE8T5iF9pUdcsH2JYeeP9Acy9rKuI8WqTiO0lXjrl+1H15ja01QmxLbFOxeHoMxFly6EfxLjq4X/oH6eDMUcR7oVxDHOMy/x7Vfrff/Om+H//136thLke6fCv/3oJm+XQZULPmyZjQhzGEcOVH/iIiwbNtNPUtzL2xpjuzNXY//6v/urHv33p0se/+9u/XQzdH/zsZ0f6+oe/+Zsf/9Yv/dLHP7x/v+4hs2iWbey1282wuwTSsrFXmhkNhj7u/oG+tLE3ZnLmauzh79y8WQzd2B3vEQn/vd/5nY9/8O23xW8Wz7KNPcRjbzkZeAxWTvOuvjvxOB6nVwrGmMng/hnHF/xTZSxfxNZeY1YSz1FjjPmcLmvjQr/GN8YYY8zhY2NvjDHG9Bwbe2OMMabn2NgbY4wxPcfG3hhjjOk5NvbGGGNMzznwp3fGGGOMWT/G/emd/87erA2eo8YY8zn+O3tjjDHG2NgbY4wxfcfG3hhjjOk5nY396dOny3uB6IhbN9D5u+++q0OfhzPj0s1q0Jf5OS1v374tbeZ6FFjmffn1118Pvvzyyzq02tAned7/8MMPw3uCdty8ebO4mDYv1qmvjhx8oAfB2wq/ABZ/lpIys/5S1TJ/ElS/stX0O9rCP1G6uoybo4uYn+sCbcXln9ydF/ya36j7Zpl0uY9nReuAftkwzqtVosu4oD/oJ5s1RxRWullfuozhTMf41eI6qCbM1LsJyj148KAOLZ6nT58OqsW/Dn0OT8VHZWd0FJh1fq4TtHOR3Lt3r/YdPuPu41mJ68CVK1fKPFpVxo0LO3dx6tQpLEK5Klw9LBS/6T8zGfsTJ07Uvh/RcREuLrIcGxHHjYSfSagblniOf4B0lc/HQYrHRdnko7zqyOUUr6OrCPHoQvmrV68Onj17NoyL6YJ8xGV5Oj4jr9L94HC45PkZxyYedTKOOI1tPgZlPqmcnMZWcyu6PAcUjnKVjzj8mv8QZWZdMir/5MmTOuYTcZ7ihOZpvM/iPI1lpBP5uS+4P5r0UfuQo7LExToibff4tPdxrBeHfEE4jse4fia9aR0QsV+pt0vdGqNYd6St/0SuQzSNC3Wo3/CfP3+++CmnflM/Z2I/qR3kVVwcD/UD1zge+PP4mBXh0wa/2zHAuGNSwhwrAXkJc1SE07EYV/nJG+slLHmUifLaZCMLP47jrFwu6qwjOR17UVdbXhiXThr1k44fp3SuaqeZD/TvKJrGJ87P6Ccf+XEaO/yAX3MkytQ4M8eAPG3zVeGmvJpXSte8BJUT+KVLRm0A3QeqL/qpj3xxnmpucpVe5FF81AnI06SH9MVJjmRKluoH8scxklzySg5hyW2696Sb9KGs5HOVHlwlE9R+rpIvorxYF8QwV+WDLnVTl3TOtPWf6lM6V1A/CcpIH9URdVebhcpL55hOHOmCNOkkPYgD1RH7Bj95ogyzHOIYtzHM0SWzBjM6wUTTxBCEKZMnrGiaiOTPjJINTLZYDpmalLleyunmgJgXGfFGgZiey+rmkj/qSFs86eeL+roNxo880QmNVXQa6zxWcZyb0trmC36Vy3M+zw/SJIcr4SbynBOUifLa7jGI90fWo61c1qlND8h5m/pF9TeNkfo35gPS1Ef4o45t+ozqZ8h1iCgv668weaKszKi6cx9FclqsP+sC5JWuuR9y/qZ6SScfKJ0xUFwb5FN7oj+S7xezHPIYNzHxMX41UZA6dOLdu3efHfEpzLuhaiKVY3uOfvLRmOC4qunVwCjZo0DePKkWm8Hx48fr0OCA36wGo+ZnTuPd7ziuXbs2eP78eR36NAeOHTtW/JcvXy7HqOLNmzdzmxM6UqW+Jt6/f1/72tHxb9Qxo/e3EY5hdfw7b/b39weVMTgwDvfv369Tm+l6H3PMzJH2KHJ7x/WzoA/J8+rVqzrmIF3qngb6K+vMOjpv+HbqxYsXdeggeu0SqR4wyhwhPr66MKvL3P7OHiPdtKjIeN++fbvc2Bj9toWESf3y5cs69CPjZI/jw4cPtW82uMnyzb6IG8/MH+YKxnhSzp07Vx4sWdRwLHJafLliuJR248aNkn9WkMWHV9wvo+bXKAOFzpcuXSoyeMhpQ4aUtmhRv3DhwsI+3Dp58uTUD+Ft97HeH9+9e7eMzyioW+tG134G+pD+vnPnzoHNyiR1TwP9FR82xbw3GvQB90d8l6+HRdZk0iN8uEgcbeYhZ9oxNctjbsaewQd9nMHgY6CJx694jL7QDkmwyPCEqYnDlck3SvYoWMC4Sa9fv17ClOOGZXI2nS6Me3hgMedml36PHz8ucWb1OXPmTBn7uJh1+ZCI/MwfFjZcnHMYRxZjpcW5rQcCGahHjx6V+uNHTk0gE8Mz7tQh3xOvX78uV8oyt6mr7eGGNM1hPuzjgQXQkYfxpvuqy0laF86ePVvu3bgbHDcO4+7jhw8fFqPT9qClB/S4bozq57Z1AD3oH+kB4+qeFU6P4rzVuqX65jUuwPjH9Y25Qb83nbxoHtOX4x6UzIpQLVKF4G2kGtCSR66JalIeyENY8dWkGcZXN0eJB8nVex7eGykfTrTJppziKBv1jO+XcKThVL/icciLdZAnp0OsTzrrvRcO+bENymNmh/5sI457W744TjjCeazyPM3zAEeeJnk49BB5rigt6prlQwwrr+ZsJNYvvTVPYx3y01bkEFYcVxF1ieUh9lMk3jO4KAOdYh8gA3KbkZHzxfppJygs/dUnUTeV4wr445hKFigOp3LIjG366quvhn7kxLrI21a3/MonPy4yrv8gz7NIrD/66c8YxiE79sW33357ID3WQ/msm9pEviiHeqBprM1yoM/H4V+9M2vDYcxRdoB5p0scJwXs2jmd0i4e8s5r1UB3jpyneaWxjjBnKuO0suNhzDzosjbO7RjfmL7BcWbTR1e8w8TAN317wqsdGxZjzKphY29MC3pHy1NzdLdu3SrpOzs75X1lTOPr/VWFUwceXvb29ub6rndVURt5KNOJizFHFR/jm7XBc9QYYz6ny9ronb0xxhjTc2zsjTHGmJ5jY2+MMcb0HBt7Y4wxpufY2BtjjDE9x8beGGOM6TkH/vTOGGOMMevHuD+989/Zm7XBc9QYYz7Hf2dvjDHGGBt7Y4wxpu/Y2BtjjDE9p5Ox50ckeCeAyz+gwU9mKg13mHz55ZeDr7/+ug79CHFRx+iUn184I8x1EYzSAb3N4XDz5s2F/ihMvj/kiO8z9Ok82sh9M839Qd2LGtdFrxXGLAQ+0IPgbWVnZ6fk29raqmN+pClumVA/um1vb9cxB9nb2yvpXCPSm7Sm9HnSpsPm5mbtWwz0ySLbtSzou3lCvyNzY2Ojjlkc1LO7u1v8jAdh7qc+on49rPbRz8sa11H05b4zqw/zfRwTH+Pzk58PHjxYuZ3J/fv3B9UiU4e6QzmobspyPQyePn1a+xbDnTt3ap+J0O/8TO2yuX37drnyu/h9hH7lp38Pi3Pnzh3KuGZ835lVYmJjf/bs2WLw+V3sUcdYHI/qyDIeretYDkcarwh0/K4yOrbjGC6Xj68UVH4aeFgZV7apDZRTHO2PeQhLP+K7EPNFWdJNYaE+iXlUp44XlaYwsPh21cksnmwMJxlXofToNMaxjBz3leaY5rPqlVzdn3Geiyxzkgd+5KpcnocxTU6yyZvbFPXookNsS2yn4rI+EeVBhsqq34VkcUWW9IN430U9tMbBJOufMVNT7/A7HQNwLKejSI7q4jFZPMbHr7COrjnSojx+nOTo+B1HuvIjG7/KCOolDihLWOCnniYkNzrpAErnCm1tAOpXGhCfw0006RD1B+TE8ugY+0p+dFAfSZbGg3ySm9u1ztCOeaN+XDTorrFjfAnHeTzpuEKUSTzpgjJRfiyHP84xySG/6pQs5CgvcfJzHdVvsX7yZr0ln3oJC/yxXMyLXw5G6aB+hKg3UKdkAvLUjxHKKF554rgItS22M993XGMfqH/QQ/IIqxzp+ImLdRnTRJc5MszRJTMTL94UlNFNM+rmiTdlvCEE4XgzxvJc23TLsrKcSL75yBd1zOmj2qC8grbHNPqpiVwHxH4D6oxtyv2SHbJyH8V+aapzXYltnBeMlcZukWi85OY9rrQjzhvSNH+5xjbm+yTmjXVAzivG9Rtpug+iH/CrXVkO90Osj7DukaY2t+mgNPSPdQPykBNdUxtzX4g8LvjVfyLriizVJad2jRqPXJcxTXSZIzP96V11E332/p4jLDh27Fi5wokTJ2rf/OCIa5Z3Yrw35d1eE+PacOrUqfJ9gI71Tp48Wa6EX79+PThz5kwJd0HfDAh0evPmzVAHoXC1eDCqQ4cuZj2oFu7huOm9/bTjqjnIfIN3794dKFMZksGrV6+K//379+V+mRccM/Maryu07fjx43VocMB/5cqVkq5+4Dqv9QK5z549++zbCOqojOuB/tZ4RIjjXuQofVT/sQ6eP3++5Gt7rbC/v1/GJNaZ731jFslMxp4blQkcb3wtOFqExLwWG73Xev78eblhF0GXNly8eLEsptzcly9fHly6dKmE86I7DTdu3Bg8efKkPDzwjQRI5ocPH8rV9INZxvXu3bvl3uN+ePjw4QHjcevWrfIwTBp55vERqN5NUy8GrivVDnv44CGIE9zHhJFNf7CuzANkYlTzhoQ6ML5dwNgjA9re7aMveeiTtm+Z2BA0xRuzLGYy9sACE29cyA8Ajx49Gly/fr0OzQY3LjukWQ3qOMa1ASPMAivjfu3atcGLFy/q1MlgIYof4fDwgGwWyHj6wE4u6kCZcQvIovvJzM404wqU0S4RoxTh4VNpuEg0djKC7EzH1cmcxKC1nYi1wcMrDx6S//jx4xIHPNCii/RcxG5XRlhcuHChrCM6mUOvpo/giFOee/fulWsT+qAOo6+1MN93rBecMsSHjraHB2MWQnWDFYK3Ed4rkQdXGcI69hN7e3ufxcX8eh9V3XTDONKBcjFfdbMMwzE/LudXXmTF+igXQa7SmtLRP6aLpjZEiI+ycjiSdcguQ9ua6oz9Q19k3WOfqY/VDoXXFdowT+JcirL1nrRtLCchjgeuaUxhmnGNZeT0rjfOXTm1R+3DqQ+Iy3XE/kHvOIdVN9dM1Ev6RFn4RW6nHOT6Y3rUNesQ20dazKv+z/KaIE/sR8iyIeaRfFA8V4h64LRuKkzZ2Hc5Pyi/MZEuc8K/emfWBs/Rg7BLzEfe7EZ51zwqbZVgV80rjHhaQByv0OZ1nG9M3+myNs58jG+MWT4cAfMKKYKB57gYo54/SuM4ehEfys4Krxsy33zzjQ29MXPGO3uzNniOHoT+iGxtbQ3fefMx6d7ej/8r5Obm5sL/p8Zp4CGE7wUiOzs7NvbGTECXtdHG3qwNnqPGGPM5XdZGH+MbY4wxPcfG3hhjjOk5NvbGGGNMz7GxN8YYY3qOjb0xxhjTc2zsjTHGmJ5jY2+MMcb0HBt7Y4wxpufY2BtjjDE9x8beGGOM6Tk29ubIwu+Q899M4vS75fOGH6dRHdHF3zU3y4Expu+XCfVNM7f4bYO+z5GmNsZ7UvcOv4KoNH7kaV5MOzbrio29OZKwaNy9e7f8f9Lb29vlx1i0qMwTftBF/2f17u7usL6rV6/a4C8Rxjb/4M6iwZhNA0Yt/ohRX+CXGiNv3rw58INH3JMXL14s9wg/6sQvN+I/depUKfvs2bM653xAdvxp5b5jY2+OJPwUrG50fuN9Y2Oj/Ib6MtBvyuefoTWLA4PBw9YywZhNA79OyHzsEzzYjnuYfvHiRe0blF9v1C84An5+udFMj429OZLkJ/ppd2HTkhdz6tfxpY4WdezMIpnTQOnRafcUy8ixYyQdv45DVa/kEk8+HaHiRJbZdjJBPHKjfpRFNv7c14rHxd0f+ZClo928M1QZOcmNuuOajEzUTe1QPYTVP6D4mBfUd8TF+CaUN8qN7ca1kcdZY6XxiOOCHrnfhcYeF8eAeFzb+ERIo462MYl1qK1cOcliZ0689M9+0u/cuVP86K12NKH6pSs6EZaL7Vac+gZi3x0ZPtYErzErySLnaGV8a99iQPdqZ1n829vbJbyzs1PCW1tbwzTi0GVvb6/kwUk38lW7m+KHKJN40gVlovxYDj86CMkhv+qULOQoL3Hyc23qM+RIhurkGuWQJt3IH/UmjTjKSA5hyaVfILYh64Kf/EA+yZcMoEyslzTJy7KjripPnOKpT/6M2oDe5Il6xvbE/oEoE33kR2fCINk4oDzllB7brvkk8COTMpKh+pWWQZ7y0hfqD7WBunJ9kslVegF6So4gXflVHidieqwXkCdZsd3kV3ysT7KjjHUm9lMb3tmbIw9P/Ddu3KhDi4N3xuwm2L1Ui9DwfeWDBw+GaeyAqgWoxFcLU7nqOPjkyZPlCtqRHDt2rFyvX79+YJeCjOPHjxf/tWvXOh0pow96VYvl8Ag17vKI0yuIEydOlGuGE5PKUJSTC46jgSP0S5cuDcuSJh4/flzar90XvHr1aniUjSxkqp2C9kiHy5cvH3jHTZpObqg7o91oPCYGxgWoW7o+fPiwjAm66Z2/dod88wHUF989ZxhH9GA8op7V+jvUb9RuGn0kP84BydJV/RH7XeCnPqExoJ2VYSyuaXwi48aEcWSuAfUxl+i/JsbNR8pr/kf29/fLWMS+g1Fjfu/evXKljPLEcTgq2NibIw/vzrXQLRIWLxYcnOqTgWbxURouL1gZ0jHK+s7g3bt3B8qweGM04f379yONyaRwhIoBnAe0H6MQ295lLHg40zcPHz58aDRQGAUMUIa4+H4YMAL0mR464rjEccORF+NLnyr/tFAP5bt8fEZ9eiCZFh2Nz9vYqb/iA0DbA+EsaDz1wJWhbXHMmUs8CBA/z3tgHbGxN0caFoC8w1smMtAYrElhZ6ldJzuo2I5bt24N33+SR7u9WdA7XepldzcPaD+7tUlhEWdRRx923M+fP69Tfnyfi2HGgGeIxwDonbKg/1SGkwjgIYKHpSboU/Lz0EWdk8Lcox7JaEPvwWkjD0bTggx2udTXtnufFs3j/JHrvA0s7Wfu5b+sGDXmjDXxkL8xOErY2JsjCwtENBJ58V8WLPQcwwv00E5pFJRhEcPlY1EZEblINLC8wgAWz3F18kChI9x5ceHChWK044dTXcaBsYunITI2lGeXPG7n+ujRo/IwpDZTv+rlQUnQj/EUQx95cVXf6Th/EpCBjnncmqB/9CpgWtAVAz+Ph742MLKxr+hjzet57vI5VeGekeEeNeaMqeaWjvOPLNWNUgheY1aSec5RZGVX7RpKWrWwlnBl2Ep4FpDRVEemWoiHeapF88AHSrgop1roPisjh+5Anpym9qh9OOriSlyuQ2k49MYprLq5RqJs0mIZ5EW9pE/Mg4OcL6bTN1E3OfVtLCs9f/KTnwzjcLkPCMdyhEWMxw/oFOPRKRPHJ7chp8tPG2I8esS2Ki3WjYvyyZP7HRRWnnjFtY2PyGny49T+mEfjAXE+N5WNYXTK8yj2AXJz38ew2kSZnDfrojjJX1e66P4F/1QZh0cgxqwqnqMHYbeWPwxjJ8MR96i0PtD39hkzCV3WRh/jG7OGcITJR3kRDCD/WRBGL/+HPRxlLuKDqcOAdnJEHBn3CsKYo4539mZt8Bw9CP0R2draGn6kx4dRe+Ed5ubm5kLf1y4b3tnHL9g3NjY6vf82po90WRtt7M3a4DlqjDGf02Vt9DG+McYY03Ns7I0xxpieY2NvjDHG9Bwbe2OMMabn2NgbY4wxPcfG3hhjjOk5NvbGGGNMz7GxN8YYY3qOjb0xxhjTc2zsjTHGmJ5jY2+MMcb0HBt7c2Thl+P4P6Vx/CrcIsl1EY4sQ4ejROxPfhGPsH4Zj77P/b9IJq1P8wS3ivCrg/zQUoS+ls78SFFss9LmBb/qSB3zZlFyVwZ+CAeC15iVZJ5zdHt7++POzk7xc13k/Ef+xsZGHfr4cXNzc6r6kLO7u1uHTFfoa9ze3l4Zd/xbW1t16mKZtD7mhsaYORPDh0WXeaf5TB+rr2NY6ctgmrHVGkB/ryNd+tc7e3MkuXz58uDKlSvFf+bMmfITqYuC35a/dOlSHRqUn5rl52gn5e7du7XPTEL8qd/bt29P1ffTMml98Wd7+cneVfjZ3nHzLp5InTp1CqtTrgpXDwrFvwzYnU8Da0H1YFaH+omNvTmSaDECjhsfPXpUh+bPhQsXBg8ePCjHn0K/Ow/5mJl8hONRKGGM1vnz54dHjfHoNB6rqhwLX0yjnOS2QV7qz3lVT2wDKB4X9UdO1E9pEMvExXmSusmjY1fSuIrcn6OgDsmHqDNOhizKVFruiwhp5InjIoiTDLVR9QJjrDx5zNVeXGwzcnAql9s+bkxiu3ACf9YhHnfjJw3Iq/aQHsdWxPrVf039AZQnjmuMV1szxN25c6fca5RT+6J8jaf0iHUIxeFE7p849oRVJo4PZVQPOhw6nzb48z0iNWYRzHuOcjSJTBzHeIuEo0XVxdFmJMfrKDEf/5MnHqfmVwMcGevYGIcf8JOXsmpz1gGQobIxr+pBXq5TckgjrDI4tYOrjlbJJ7+OTmGSumNfkg/wx/bipBvXGKa8dFC/CPTQXCCP2iCZOMh9EZHuoLpjmyVT+aQXEI76xDBX1Sm5xKEL/ixLqB6c6uYqnSRLZYknLPBLB42Z5IDkC5XXeMR04lQvjOoPxVMm+skTZUSIj2n4o+70n9obdQTJVhx1ql7kKJ6rxoErZZQPcn+q3kVCfeMY5uiS2ZjDZFFzVDe5bs5FEReZUYsDCwMLRIY8edGNLi5MccGL8nJdmVF546KltOwg5oOsj8hGomvdQFu1+AJ+tT+XzWHpE+OaGCUz6xOhjNoBbe3PMoGwxhhyOBLT2uoQo8YktlMgW23IOuT8eRyBdI2P0qlPcU3k/sj1ilFtzWnIyA75TTp3aRfkviRP1DO3Y9RcmRdNemZ8jG+OPLxXrW7GwevXr+uYxaD3mdXCUN7Nth0D80rh6tWrw+PBJt69ezeoFqYiT45vAZbFhw8fyjXWj+sKR646/p0HJ06cqH3d4KgX2sacY1eOhKehy3t2xpU5Nw16RTAv9vf3D7zWgml1GwV9/uLFizp0kKb+qIxkmSO0te1eGYWO8Suje2CO5ra2cezYsdr3IxzTc2+uIzb2xlSwuB8/frwOzRcWMi08cO7cuWKoMdhNkM6ixEMBBkfvGSMYt8P8eEsLYWxXF2So+I6B9s0L+rLrIg7V7q/Uz8Id28BDCPo9f/58pg+22sZW73ABIzQJ6ElZPvic5MFqHCdPniztzcz7fkBn5mx8gB3VH3w0RxmMfh6nLmg+6MF0UiinBxB0Rk8+VkSfdcTG3hx5WHBYhDCyiyJ+jc+ixc7+7NmzdcxB9PGTHgpE3PnwFwQsjnHhbPpoaVGwkKJPrLNL/ZxaYET1lxCzEHeJDx8+HFy7dq0OdYP+xehHvdl98hAwyYND5saNG+UhTcYJQ4pcxurx48elTk6TuhDH/MmTJ2U+xI875wF/mRLnkh4udT/kHfcsMP6xb0b1h+4D5kpXHXhwidBf169fr0OfP3hn4l9D3Lt3rzhgfmHku6wR+SGDNtO/as+hUT05FYLXmJVknnO0WgSKPFy1kNSxn6gW+xLPu7Z5wLvA6mYf1hdl53jgnaPC+IXipa/0lCNMXQqTP7aTOuXHUXdkVN4Yjv0V81B31Il8WZ8sR/5J6yZ/LEM9kPszh7M+6lMcusew9Iv14Nr6IhLL4Ecu5P6R//vvvx/6ccovfcib26LyUWeVi4wbk5wHF4k65LIxjKNvYtu//fbbA+mxHsq39QdtbRpf6RLjIlEefohyKZ/7MRLbQ1tEjJc8rlG26oOoJ37yCcXNE2SO4wv+qTKWI4raa8xK4jlqBLukixcvdt4hG9NnuqyNPsY3xhhjeo6NvTFmreAdO+9Wefcbv1kwxrTjY3yzNniOGmPM5/gY3xhjjDE29sYYY0zfsbE3xhhjeo6NvTHGGNNzbOyNMcaYnmNjb4wxxvQcG3tjjDGm59jYG2OMMT3Hxt4YY4zpOTb2xhhjTM+xsTfGGGN6jo29OfJ899135SdTFwGy+X+rsyPezI+3b9+WfuUKP/zwQwmLnH769Omlj0HWQRAnh07oJoijLfMg98mqkvtpXHgWuO+7/JjSuvTdSPghHAheY1aSRc1R5G5ubtahxUAdu7u7xb+9vV3COzs7JWzmy97eXunftvnCWC+j/9GDsR4FumhebGxsHNCJcJw3RwWNHf23CoybT6tAF928szdHGp7sqwW5Di2H27dvl+vLly/L1cyXU6dODSoDWYc+5+nTp4PKkNahxfHNN9/Uvnb4qV7x5s2bwZUrV+rQp/BRpDKutW81GDef1gUbe3Nk4cj07t27dWi5ZGPD0S3HhDgd2+roUMeWMQ2UHh2/9Q6xjBwPNqTj19Gl6pVc4skXXz+ILLPtGFxH0VE/yiIbfzymBsXjpD+QD1noE9OUN9avutpoS8+yM2pzbHtud9PYIffBgwflN/eJh6hD9J8/f37YJ+r/JlSHdNVY4mKfSjZyYrs0LhniJUdtU5todwzjokziKdPWj7GcXBvK++TJkzrmE3nscpi66Tf1R+6/UTpIfxg19yOqH5f7Cxf7YJxuS6Xe4a/0EYUxMO85urW1Va4ctR7mMT56KI04jm/j0SFhIF/UM8okXu0BykT5sRz+eLwsOeRXnZKFHOUlTn6u0iuCHMlQnVyjHNKkG/mj3qQRRxnJISy5qjPW33TMqvzQlE5ZwlF2Eyqn9Nxu/GqL+g95EPu57Sg45ld59RsoHRfrlTyBX3qofGyX/FFGhPRYL7KIkz/LpH7i8OOIj2nAuGps1bY2kKW+oozk5H7LYeXFUYfSpfsoHaQ/8UrDKT99JZ3UNiBOeYCyTf0zTrd5It1GMczRJbMxh8k856huTuDmjeFFgO7RaRGBnIZjYYgLDEQ9tXBwhbjgAGlaVLjGRZ58uX7lzX2R8wrqazMcOS0uuEAaeSAuiHKqL+Zram+sI/fVuPAo2ZFR9WaZQH+prbnvmvITJl7k/icdeTGuidieacYMSFM743hFcn+M6sesR0yL0P6oV5aT+y2Hm+pRn47TIeqf+z6WVZ30S5SXybqP0m2eIHccPsY3Rw6OJnlXqmM3jloVXiTVTc4dWZze2+uYtFochmk43hOOgvRqIRm8fv26hN+9e3egTLUoDV69elX879+/L8eM84KjyKtXr9ah2aD91WJ4oO3qm1WHfq2MRR36xLhxmwZeB8R3+xEdKTN/xP3794evD/Kx+iju3btXvjNgTE6ePFnH/gjH0bm9o7h+/frgxYsXxa953tQ/9OOi6KpDVxgLyctM2j/LxsbeHDm42aNxwdhgOPEvGy08Hz58KNdJ4HsDjC6L+sOHD8siL27dujVc8MnDR2mzwmKGPOqtdkN17GzQ/v39/Tq0Xhw/frwYWRkR0WQoZ4GHRB7e8vtexgIDzbyNRkbzG90wTnqvPA4+DiQ/D5CXL1+uYw++I48PFeNAHh8ZUhb9aEcbk8idhEl06AL9ijzuBTFt/ywbG3tjDhkeNNiBCBaSbECaoAyLjxagyKVLl4ZpuEg0sDIEfCQ2rk4eKDDy586dq2Nm58KFC8XAsGACOsSFdJWhHzAgcfdMW2Qo9SA3D3iQY3ev8eJK3U0PcXoooH4eEiaB/DzMRd0fP35c4ic9caFfHj16NJyDbfNGf4GgftRpVXyAmZauOkwC8niQ1v0ybf8snaoDCsFrzEqyqDnKOzXerQneqVGX3uXNAjKQJdf2vq9a2IZ5qoVj+O5PLsqRrrGMHLoDeXKa2qP24aiLK3G5DqXh0BunsOrmGomySYtlkBf1kj4xDw5yvpgew9SR6xwXHiWbfo/EtFyviHmoS8T833///dCfdcLRN7mvyKdwbgMorDiu1Bnl0FaIuiiuCdpP+Uiuu8nf1I95XHG0q4lYh8YHGbnuHM5zNOpE3lE6xLw//elPh37qj3Irwz7046IO5Ms6yf+Tn/xk6G/SbZ4gcxw29mZt8Bw9CAtsRgv1qDRj2mCO5AeeaVmFOXhU7oMua6OP8Y1ZQzie5KO8CEe7Z8+eLcfg+T/s4Zj8xIkTdciYZni9M4/XD8y3pv/DYpnfZ6yCDqvEF1j84vniCx4NSqQxq4jn6EH0UZDY2toafqTH1/fVDq34YXNzcy4f6Zn+gVHkmw1gzszrWwMeSPmGIbLs+3cVdFgGXdZGG3uzNniOGmPM53RZG32Mb4wxxvQcG3tjjDGm59jYG2OMMT3Hxt4YY4zpOTb2xhhjTM+xsTfGGGN6jo29McYY03Ns7I0xxpieY2NvjDHG9Bwbe2OMMabn2NgbY4wxPcfG3piewP+PzY+aLAvqok6Rw/wYD7/Et0jm3ebcBvSnHcasOzb2xqww/GpXF5ZtkN6+fTv8pTRx7ty54Y9xfPnllwd+dW8SFtHmrjJjGzD8V69eLX5j1h0be2NWFAxq/nnONt68eVP7lgM/g7q7u1uHPoef093Y2KhD3VlEmyeRGcHw7+zs1CFj1hsbe2MWCMfAHAuz0wV2mIS//vrrEtYxsY6PcRgnwjKWxP3Kr/zKMB2y3IzyNu1oVRf1KB9xkomLxPi2+kBtyVCGslGXKBPX1Gb1UUbymtKpXzKR1yZTeWIctLVBkEae3CaFcaA+Vn81tdeYpfKxJniNWUnWdY5ub29/3NzcrEMfi5+4amdc2oRTOtetra3iV7rI4SyXNPLgKgNXxx5kb29vWKfyUB9+1Ysf2UD+WAdp1W63+KM+8sd68UedlBdIIw5GtTlDPuVFR8kH4uVHR+mSZVJOMsinNOWLbYhy0JN01an89BEgU30DqgPa2mvMPNAcHoV39sYcEjomrgxBOfYGjsdn4fHjx4N79+61HnHH43flOXnyZNmx3r9/v4TjzvbJkyeDZ8+eDXekvId/+fJlnfojbUfexJF27NixEtaOlrqJh65tpizH8dLz9u3b5SpI4zsC9ORdO7o27aApJxnHjx8vVxh3bK9XE7lN4tq1a4NHjx4VP/XSr2Ka9hozT2zsjekRGDyM87zY398fVLtQtg1DJ0M5DzDMXd+nf/jwofZ9jow6Bj7qOsqwcgSfPzKcBRlzjvB5SLp8+XIJRyZprzHzxMbemB7Brh3jrHfFs8LutGl3PCt6x41BRt9JaNJHRn3UA4HQ+/MLFy6M/MhwGq5fv15OVyA+aMzSXmPmgY29MQvmxIkTwyNzDBU77zt37hSjM4p8TJyPwh8+fFhk5Y/w2HkTP05+F86ePfuZrKaP/iZBfcAuPJPbHGHnzDG66mcHDezOkbm5uVmMreDDO+KzTI7at7e3B1euXKlj5gcy8859VHuNWRrVk2YheI1ZSdZ5jqI7jg+1+ECLj8T0gZfi9cEZTh9wER/D8SMx4giD8uGy3EhlcIZpuJ36AzWcPhxTGH0g5sEhI9eR5UQ9m8rH9NzGHI5E/SUDXUTsh1g+yoz6xPy5DZO2SdBvMQxt7VU/Is+YaWEOjcPG3qwNnqNHm9+rxv/vv3lT/L//a79WwlxXLYwRH5V+IPzrv17CxsyCjb3pFZ6jR5vf/9Vf/fi3L136+Hd/+7eLofyDn/1sJa+71693yveHv/mbH//WL/3Sxz+8f79uoTHTYWNveoXnqPk7N28WQzl2x7zk8ONf/MUyP//jP/EnJir/937ndz7+wbffFr8x09JlbfyCf6qMwy9FjVlVPEeNMeZzuqyN/hrfGGOM6Tk29sYYY0zPsbE3xhhjeo6NvTHGGNNzbOyNMcaYnmNjb4wxxvQcG3tjjDGm59jYG2OMMT3Hxt4YY4zpOTb2xhhjTM+xsTfGGGN6jo29OdKcPn26/L/SuK+//rqOnT83b94c1vPDDz+UcETxZj7E/nz79m0JcwX6Pvf/IllEfczb7777rg4tb/401RPvIXTiKrKes5DH0UyGjb05srAIPXr0qPyABO727dt1ynyhnufPnw/ruXfv3uDBgwd16ieIP3fuXB1qBjl+IOhG7M+NjY1yBR7oct8vkknqw4h1feB88+bN4MqVK8WPQV0U+SElz1PSmc/Eb25uDt69e1f88OWXXw729vaKfx6cOnWqyOZqJsfG3hxZWJjGGdh58PLly8GlS5fq0GDw9OnTwdbWVh3qzt27d2ufmYRocHigm6bvp2WS+r755pvaNxkY/kXQ5cGDh1jBvI4PzITjg5Y5XGzszZGEXdSdO3fKseAij+/hwoULZXcXjzPv379f+z4/niQf4Xj8Sxijdf78+bJjAnb5xOPi7k7laFdMo5zktqFj15xX9cQ2gOJxUX/kRP2UBrFM7PtJ6iYPZZWXq8j9OQrqkHyIOuN0khJlKi33RYQ08sRxEUrDSW+uzBHNSYi6ZTnEdT3laetXoXic2kQedEEn4ml37AP5mZNXr14tfqB8U5uBePKpzZqfckKyyU8ewqCxySg/Tm1T36k9sY2qH8iHy/eKiOXkpM/a8bEmeI1ZSeY5R6tFanhF7ubmZgkvimp3V+rBqW6R46XLzs7Ox2pnVPxAnt3d3Tr08UAaZba3t4uTPPyAn7yUxcW6IshQ2ZhX9SAv1yk5pBFWGZzawZX2A/nkp33kg0nqjn1JPsAf24uTblxjmPLSQf0i0AO9gDxqg2TiIPdFRLqD6lZ9hCUTkKH6iFcbVE7gVz7KEI5657Bo61f1RaxTabH90hskR2Uh6q/ysV+UntsDURb5pAd1Eq8y0Z9lRGIa+WO7pJPkEEe6ZCovfrWHOI1V7rdVA93GMczRJbMxh8ki5yiLATf0IokLVlzwFa+FRAtkhjzSkXTJkpPMvEhHebmuzKi8xOdFMzuI+SDrI7SAiq51QzRSEBfmXDaHpU+Ma2KUzKxPhDJqB8T2IxM50SkttykS+wYoF+drDkfa+jW3CdBFbY56Q1P+rFfuF/zIiHFNxLbnekWeLxnKSBdkRT0jsa9yXbE9TWltfXzYjOoX4WN8Yypu3LgxePXqVR1aDPrAqFowBs+ePRseMWb4aFBHo/GYO8L3BtUCWeTJ8Y50WXz48KFcY/24rnB0yiuJeXHixIna1w19NPf69etyzXCcyzH2NIx6h76/v1/e4cc+i690Mjq6rgxXHTM/NIbxg7eTJ0/WvvlBX6N/0/G3juC5HwT9odcH8ch9HLdu3Rp+10I/5w/5uN+Q2ZVr164d+CaBNhw7dqwOrR829sbUnD17tvbNl/jeEfgoEEONwW6CdIwADwUYnKZ3sxi3RX2Y1QUtepO+v9SCy3cMtG9e0JeTfKWNwaV+HqpiG/Sul0W+2h3WsZPTNrYY0659hh760r3aVdax80NjmOfXvL92r3bKpS/jR6rAAxVxtI/7IaIHIR4C2h54M+iNTOYY80vogYIPZZHZFe5D5FEWRzvm3TfLxMbeHHlYDF68eLHQL/PjQkd9LGJtDxfazeihQMQF/8yZM2WnERdCDNWyYNFDn1hnl/o5tWDh15+NzQJjJh4+fFh2YpNA/2L0o97sKHkImGVR55SIhzQZdR4ckMtYMeb5VEf1xzpJp38XeVpDfcyv69ev1zEH+3Geu3x9pa/5ygMG87fpgZX+UN9N+sBFW3iA4/4QT548Ke0cdYLSBLoiTw8e85izh0rViELwGrOSzHOO8k4PeTjexUWqxb7E693drFBXtbAN64uyczzwnlDh+M5Q8dJXesoRju0if7XIDcPUKT+OuiOj8sZw7K+Yh7qjTuTL+mQ58k9aN/ljGeqB3J85nPVRn+LQPYalX6wH19YXkVgGP3JFbp/GIcZnvaVLU9kcjkQ92uqN40AeEcfy+++/H/pxuV7qifIJ57pjPRDD8jM+OIW5Qp5Xo4h9DW19Gccaf9Y39xeOPKsIuo3jC/6pMpZjitprzEriOWoEpx8XL15c2H+EZNYTTgzev38/l104pytZDnGcGqzacX6XtdHH+MYYY3rB48eP52LoeY3A64AM7/1XzdB3xcbeGLNW8E6X9968F+/68ZbpN/qILn6YNwsY9O3t7aFcOb74X1d8jG/WBs9RY4z5nC5ro3f2xhhjTM+xsTfGGGN6jo29McYY03Ns7I0xxpieY2NvjDHG9Bwbe2OMMabn2NgbY4wxPcfG3hhjjOk5NvbGGGNMz7GxN8YYY3qOjb0xS4ZfbIv/p3sOj4L/Fz7+/nouG9P5BTD+G01jjPH/jW/Whj7MUQzxgwcPyo9szPrzrKNk8atdGxsbxe/72ph+4/8b35gV4/79+4PNzc06NBujZPGrXbu7u3XIGHPUsbE3Zglw1M7TN8fumdOnTw++++674ueqMPlx7NLFuCP/pnTKSxZH+8aYo4eNvTELBsP98OHDcsx29+7d8lvsAuO8t7dX/Bjiq1evlvDLly9L/q2trcGlS5dKOsf2sWymLZ3ykvX48eM61hhzlLCxN2bBYOAfPXpU/OfOnTtw9P706dPhu3XSdnZ2Spgjerh161Yx/uzOx70CaEt/8+ZNuZ48efLAKYEx5uhgY2/MgtHOfRp4926MMbNiY2/MEnj//n3tmwztxG30jTGzYGNvzILhXTnv4gXv1e/cuTP8KC+jY3t48uRJKW+MMTPxsSZ4jVlJ1nmObmxsFP1xm5ubH7e3tz+L393d/bizs1PiFM9VUE55yTcq/O233w79SpeffNUDRfFLD2PM+sK9PA7/pzpmbTgKc5TdPh/06aM6Y4wZR5e10cf4xhhjTM/xzt6sDX2fo/yd/fnz54t/Y2PDu3tjTCe6rI029mZt8Bw1xpjP6bI2+hjfGGOM6Tk29sYYY0zPsbE3xhhjeo6NvTHGGNNzbOyNMcaYnmNjb4wxxvQcG3tjjDGm5xz4O3tjjDHGrB/j/s7e/6mOWRs8R40x5nP8n+oYY4wxxsbeGGOM6Ts29sYYY0zPmdrYf/3114Mvv/yyDh3k7du35R0C11WB3wk/ffp0HZodZNHGJqd2j+qjZRJ1E/zCWozP7qiiuct8WSTMjdjfqo/5QhqsyvwxzYwbH9aIecyjRc+DmzdvFreqaK0yM8IHehC8ndjY2Chl9vb26pgfIT6nbW1t1b7lsLOz83F3d7cOLYbt7e2Pm5ubdegTqpcrfZDTlw31qx8YM/SKNMUxVk3jOi/UP5My6RydFPTS3J1Gv0lRfU2syvwxzYwbH+KXNY+WxbLXcGAdoh/b7hPziS79M9XOniete/fuFf+TJ0/KNVINUO37hHYqy+Tu3bu1b7lcuXJlcO7cuXKtHgbq2MPj2bNntW9Qfh8dvcZx//79walTp+rQ/NHcWTUYt+qeKL8lf9isyvwxzYwbn6dPn67EPJoXh7GGA+tQ9VBch8wsTGXsHz9+XCZ79aQ3ePHiRR3bDMdDd+7cGTx48KAcxeiIOx6D8/AAOmqnjI42dYSFX/mFjlzldGSGnweO8+fPD4+/4lEYV5VBhuTomD/L7UqXo7AoV30hfaSf0hVWf6ifMk19GY++6Ae1bRyxDbHPdbNLV9UT+1L9r/6L/ag09OAB5OrVq511OkrQJ+qrCP2vvtS8URjXthgjSzJzeYjxmm+AH5maezENkKlyciLOCbmf//znQz+oXskdNWcgysy6RDTvo9OcVltwee416YwuUR9c1GlS2voa4vjKqS70VhvG9dMoVIfGVaBLnD9RLv1J3q5ruPo/6kdcbHsbeewkMxLzqN1tc0P9pnbnMT9yfNrgT3ZEquMcHUPmI18dvSie/PEICD9lgWMujpKbjlB1VIZTefJyfA7Eyc+VNEGZWAfheOSGPx6x4Ze+UU7WPUKd0g8XywHpsc6ok8qqTvIpDdQnQJ6oa4R8SlM7o5wczlCePNFFkBnbALHPVTd1qGyWRb7YN1HnSci6LYpp9ZuU2GdAPxNW3XH+cI06kaZ5SXxT30g+Tnm5aiyYV3Fs1W7yqBxh8uHXPCK9re6os+rXHM/tjXmJl4M4ZygXdSaPdMnENGRLT5UT+NWfo3SmPOkQdYJYrgn1J3CNZfHnOkXWjbDagV8Osk6jUH1Rb+Qiizjgqv4jXn7ySQfArzS1TX2Mk07kw6+y+FVXBp3UbvI39Q9lox6kqa44N8gnXVQffsnvG+qfUUy8s+dp6tq1a8XPsWfV0Y1H+aPgCZHdJk9b7PCqQRocO3ZsUA1EkaejZh2VVYNejpYhPp0Rd/v27eI/ceJEuTbRdOR2/fr1wcuXL+vQYPDu3btyZMSTI/roSRFdnz9/Xuf6HHSr+rG4UU+O9Btto88AvWPfXbx4sZyYCHR49epV8ZNHfRKRrrG/0CfK6QL9rjZUN1Id+wlkxlcBtOPy5cvF//DhwzJ+9BPjCdIJdB01NuZH2o5+mVe8lopzgPmje+L48ePlmmGu6Z5S3lu3bpVxYefFvGJsNdeJ554gL/OIe4Y68ysdyp48ebL4pZN2e/v7+8P8Wh8+fPhQwqMYNWeQwysoGPV6STqwlgD3uOIox/wWsZ9H6dx1jRnHo0ePBjdu3KhDn8L0Pfq9f//+gD7cg6xHQN3xnhzVT+OgPu5PZDLXQGMd0Ws2+kvrVaZpDYfK0Jarxot5wvzV/Bu1RqKT5pPmV0SnEZIFbXND/YbT+MU+PopMbOyZpBpkLRDjjvIjuvkoJwODG3UTj4OjGybcJDCpmLCATrppdONF3TSZxqEbqAlu3jzRYxgDqocKDCqLNMZ0FHmRgFn6EeKNJLhhdGSmhyJgDLm5Y1+1LQ5mOlig6Wc9+GVYAPWg1YU4PzByjG0cv6bxz2BEdc9HYwpsBOLDMbrL+M4Kc5A1pw10wHC9fv26hONcFToGRi/RRedp1pgIa0g0zFE+axF1qi/jejRPWFO0dut+zmAY0ZU8bYZ5EWt4hHp5bZBhvW6zNePmhpnQ2DPI7EDjALPY6wm1C5oQXZ72x6F3Mex6mMiTIiPG4nDmzJkSxy4pLgTzgpuXfsropla/0I8sUnkBaEK65jxNT8WzwGLIQ16GBw0eOMziwHgxxix+GCqhxe3ChQsTfcCkucJ8Y550vW8jzE0ZBOZArJ+HPRZr0nDcl7MaAXREFqcOrDmjYC3QaRMPy/HhhTh2rciID8mjdJ51jRHIjyeJQvVwioJO1EWcdrjzBJm0nXbQR21jz9iqn7WbjkjneazhEeqi/Tx45ZNYQCd0i98XTDI3jjoTGftvvvlmeIQruFFYkEhrIxsf8rM7EAzeNIsONzMTt2k3mXe8TciIxR2AZMVJ3jThJ0U3r2TRXox/vKkvXbpU+lEPADyMED579mwJZ9CVdkb9ePrNYzQp6BY/dKEe3WRRNvrG3Q4GKBqkNtp2DEeRfITaBHOTxS/eM8xbHbOPIz4QcnTPvALmFXMw7vK6zHXyUD+LKy7ef8wR9FRa1E+7WenC/Uv94+pEZ/qp66mD6mbOCtrIvdJ0+jZK51FrzCQgn3tT90ccB+I4ZVH9Xdo5DbqnaV/b+khfSMf4VzOLWsMj9A8PjlqLm2De8eAb53PXuXHkqSZXIXgbqSZHyZPzVRN2GI+rFpYDYagGcBjGD1EeMmIe0qC6yYZx1YAeqKta6A58hCF5Kqu8hGM+4iPEUU8ktyGnQ9Qfl2mqM8slHFF7RQ63EWWqf2N/4nK7c3p2kiMozxhkiFMZpUc5cQw1NrFvJmHS/JOSxwc9BW2T/rOiuZnbE+fUT3/606GfumOf0ae5X+XPkI905cltiHJw9EHUj3qjfOZF1EVO8yvLw8V5E+dLnFMxf25bHhfpk+coRF3llC/GKR91jdI5tlVluMZ4tT0S9VD9sUzsk9w+OchjEdPb+qlJH4h9j6wchzziY5ygDYpTe2IbqTO3I+qHzNyWTEyPfa04XNSjqU7lj7Lw53b2Ddo1jmGOLpmNOUw8RyeHhY0FcJ40LZZavJvSiGNRXgajdGvjsHWmHhlQQVyTXl0Y117TP7qsjVP9nb0x5mjCEW/Tf1jFMTRHq00fsfE+ddTR7LzgdQCv5CIc37e9BoPD1hl4HZbh9V2XVzQR2sL760V83Gd6QG30vWsyK4/n6GTEI8957u7jEamcYFeZ05a1Q4ZcN7qO47B1juMkN+2u3hxNmDPj+IJ/qozlibD2GrOSeI4aY8zndFkbfYxvjDHG9Bwbe2OMMabn2NgbY4wxPcfG3hhjjOk5NvbGGGNMz7GxN8YYY3qOjb0xxhjTc2zsjTHGmJ5jY2+MMcb0HBt7Y4wxpufY2Btjpob/plO/f64fYtFvjfPDNF1+H78v5PYvCvqbesbBjwCdPn26Dpmjjo29MWZq+P+4z507V/wbGxvlCl9//fXgwYMHdehoENu/KHiQOH/+fB1qhweCpl/zM0cXG3tjzFzY29urfYPB7du3B1tbW3XoaBDbvyj42d3d3d061A4PYDs7O3XIGBt7Yw4FHX9zzIqfnbCOgZUmYjxOUObLL78sx7U5LZchjyDctW7kqx7SuAqV4ToOjvMlH6hDYZzqjDKVFnWP6Jg6tj/qgt6Kj68TpAvlYrzy4igrVIf6oMuriai/ZMU2x+N16Y/cKFvjo7Q2YjtxmVhv7J9YZtb2mjXgY03wGrOS9GWO8tvytAXH76bz2+XE6Tfn+Q32zc3N4gfFA2k4ykiGfrOdfPw2OxAnP1fJ4Nq1bvzKy2+uA37JjXKAawxTPuomGUAd+s32WKdk4iDqHom/Aa86uCov6YoH8hGHbjG//NQjv/oW0Ev1UF71qo2R2H5kxDGE2A7S1I/Kp7GQX/G5ToVFTKO85KodkhPrnEd7zeqg8RvFMEeXzMYcJn2ao1pMIS/eLMR5oY9OBiHmg7iYR6IRAWR0qRuyzJgejVtTWMY0xjUxSmbWPZLTYlnVGx31ZPlN5D6hDuqCUeWVpnZHZFCjU5uj/CZynVm/SByv3D9NesG07TWrQ9t8iPgY35gV5v379+XDr+peHbo3b97UqePhKHaeH2qdOHGi9nVDH+m9fv26XDMcGd+5c6cOzQbvswXH1ZXRO9BvfEdAHuLpU46o4ysL4Mi6ywdwo6DNz58/r0OfePfu3aAyxAf0efr0aUl79OhRGaN8nA6E0XUcem3w7NmzOqYb82ivWQ9s7I1ZYY4fPz7Vh196j3v37t25fqiF0YpGdRzVTrJ8UIYxi++LMTLoh1HE+M4DyUc/3P7+fglnMPoYW+qVodN78wsXLnT6AG4UjBcPMfFdNw9JbQ9pfEyHPtTLgw8PIHrPDuPGn7ouXbpUZPBA0YV5ttesBzb2xqww+rO2aDiiv42HDx8WI6/ys/DixYva90nutWvX6lA30AGjH/Vm94uRmeTBoQkMoYz8kydPhn8BgBGjDu3cycMDEFfpgdEX7K4x/leuXKljZuP+/fsH6j9z5kzRNe7cpYc+eqSfZKwfP35c2hJ1bAL5yJ3ktAfm3V6zBlRPg4XgNWYl6csc5Z0obcHxblT+HNY73Wox/yxPzse7WIWrRbw4hVUf10nr5opTPHIh65TDsX50i/pVRv5AWDrFenBRH/JkSI9tynmiDjhAz1gPMiDXJX/OKz8OWZGYRhvlRwbEOOWB2Bf4IeaN+nz//fcH4iGmy5/7N4/HtO2VXLNadBmTL/inyliOdGqvMSuJ5+jyYdd58eLFsTvMw4CjaF5TTLqrNaZvdFkbfYxvjDHG9Bwbe2NMI7xT5utuPhrLX4kfNryr5qO/vfpjOGPMaHyMb9YGz1FjjPkcH+MbY4wxxsbeGGOM6Ts29sYYY0zPsbE3xhhjeo6NvTHGGNNzbOyNMcaYnmNjb4wxxvQcG3tjjDGm59jYG2OMMT3Hxt4YY4zpOTb2xhhjTM+xsTemhh9X4f+YxvHTrouEH5ZRXTh+rhWoVz86w3UResQ6Mvz4DW4c/PiMdJ4X9ANjcFg0tZ1wHKPY7nmPz6g+XUR/z4vDHrdxdJ3TvYcfwoHgNWYlWfQc3dzcrH2f6tra2qpDi2F3d7e1TTs7OyUt6jQtXduxvb3dqd3oRD50nBcbGxtFJn2yLMa1k/YpD30Tx2Ke4zOORfT3sqH/9vb26tDy6Dqn1x3aOA7v7I2pYGfy9OnTOjQYVAvr4Pnz53Vo+Vy5cmVQLVR1aHpoV9d23L59e1AtinWoHfqpMs51aD68efOm9i2Ht2/fDh48eFCHmnn58mXt+9Q3cX7Ma3y6sIj+Xjb8TPJh0HVOHwVs7I2pOHfuXO37xPHjx2vfcmk7ro3H/hgqUBjXdCyPnPPnz5fffCeP5OY68JNOfGZcHUA50tuOtJWOy8eplGmSHV+p4NqOiXVEq/7JbYj9prqRJeNJvOqOrzeQw8MALtYf/ZFYD+ODUxgX+1ttJk71AXFt7RTqy9iPsW6cQD75yUv8T37ykwNlox5dkHzyS0+1U3NSunClHqUDfa66kSF5cd5oDKSz0tTu2F8ZtSfLjEguDmiHwrimdimtaz+tLPUOv9MxgDGHyTLnKEemHAEuknyMn49rqV/HxFzjMS5pOpokvq1vSOOIXOQ6og4cs+KPR9dtdSCTOJVpgzxqg+rScS6yY12k6Rg/tpc8khFRGRx+wK9yxMVypKm+3PfERzkQ9QPaTB7pGOVHfYFyksVVY0BZxVNG/iw7o3T6Tn2u+hQP5EOm2hfzQVObYnobkgnIjP5Yv/qD/PJLX+XhqjSQDugleYRVjnT8xBFuAn3IByonHWObyaN4iONGHuklPVQf7ZH8VaStXyLDHF0yG3OYLHOOLuPGZtHJbaJeLT5aMPMClWmSI5CV2xLriIsdxIUxkutABvmy7FFoEeYqf4RwUzuj4chkfWPboh/wq86mPqMO6hJNfRF17Do+1Kt+aqpXtLUfcluadIPYhlivyOWy3DbaxiCOKTS1IedBFuHopFMeA9Ikb1TfZWI5tZk46dBEbGPWuakvV4ku/eJjfGMSHBUe5vv6yLNnz8ox/KtXr+qYg3AsyVH9tHR5V95WB0fc6KYj3FHQp9ViWYcGgw8fPtS+0XB8O+37XnSLr2MW8Wpm3PhwnHz16tU69Ol1UWV4hkfDXfquiZMnT9a+T+i4GX0WAe++mSvUwZi0URnFMldGHXvv7++XPqjsz9Ddv3+/Tp0NvR7I6PuM169fl2tmlnm2LtjYGxPQAnXq1KlyPWyqnUYxJixE8X2uFrULFy4Mqh1MHTsd7969q30HGVcHC3u1GxpcunSpjvkcvRMF2pFpM3Z6t8pDF3VMAw8X2QjHB4550DY+PNyg/927d0s/RTBsGDgM3qi+GwUGUwYfQ4UcZKLPosDYUwcwPk3w4SJ5aDMPOU3ji97TPuS0oYcdPqqUjhH6mjmcdZrHPFsXbOyNqWGxZrFgFwMsCm27k3nRZXHmwYOF6Pr163XMYPDo0aMSx+I6inG72Rs3bhRDpQWQRY9dEMaqSx3qq7YPpx4/flwWWuUT7HAxvDIaMpTsCtEFHVicZ3noym1DF+Lg2LFj5ToPmsbn4cOHxeDlDz9pp/rq1q1b5doV/XWA+oc+RR4PG13/miEaWpXFAKr/20Bn5bl37165NqEP45gzerDKY3j27NlyAhHvrbaHh648efKk3EujTgh0qhLrmsc8Wxuqp6BC8BqzkixyjlaLdZGfnagWkrm9s6sWnM/kA/IV/9Of/nTop+6oX2VEilM4lmtCaciIeatFrqQjX3H40Q/a6oj5yTOqfupQWsxXGZnhe1GcZEqn2EcqR55I7BPyZ70gylG7hOQ2lY264iCGv/3226Gfsnl8YliyuNK+WJfaqzCOfmki6hSJ8fLn/hO5z0nLfdVUP+2JekOUpbiYhzJC8VyBOpUPh6yoM2Vju3L+TNalqR/wxzB9H8MqE9uAi3XHvlwl0G0cX/BPlbEcZdReY1YSz1FjFgu7ft5rjzsxMqtFl7XRxt6sDZ6jxiwOjrd5jbPs/+DIzI6NvekVnqPGGPM5XdZGf6BnjDHG9Bwbe2OMMabn2NgbY4wxPcfG3hhjjOk5NvbGGGNMz7GxN8YYY3qOjb0xxhjTc2zsjTHGmJ5jY2+MMcb0HBt7Y4wxpufY2BtjjDE9x8beGDM1/J/c+p1zfjGNsH4vnR9WmfV3yteN06dP175PfvqC322nX9qc+gt/2+/KIyv+/nsbo2RMA7KQeZg0tZ3fzVf/qX/Vj6Tx+/vzYt59eljY2BtjpoYf3zh37lzxb2xslCuw2D548KAOHQ14sNEvxtF+fkHu1KlTJbyzs1P6and3t4Tx47a2tgYfPnwYxqkvIxivvb29OtROfNCYBxjP8+fP16HlkR8Q6dP4k7v07cWLF4f99/Lly+Knryn77NmzOud8aBuXdcPG3hgzF6JBun37dlmIjxInT54c7jTPnj1bHn60wzxz5ky5Zq5du1b72nn69OmBB6k25v3TtBhPPZwsC/pOO/Q2Xrx4UfsGg/v37xcn8G9ubtYhE7GxN+YQ0NEguzH8GAUWOfz52DDG4wRl2PXpGDOm5TLxGJRw17p1JKpjU65CZbiOgx2X5AN1KIxTnVGm0qLuEeJ1xKu8URf0VnzcLUoXysV45cVRVqgO9UEsE+EBh10gu1B2gviJI6wdfoZ8uKa+lJ65vtg3uLb+UXqbvlFGbC8o/tWrV3XMJ2Kf4toY12dqG051c7169WrZmROvOZH9pN+5c6f46QvNpSZUP/pAnCsqLxRHnqb5uPZUE7IQvMasJH2Zo9UurbQFV+2GP+7s7JQ4HFQ74o/V7qT4QfFAGo4ykkEYyLe9vV38xMnPVTK4dq0bv/JWO7wSh19yoxzgGsOUj7pJBlAHdUOsUzJxEHWPIEv5VAdX5SVd8UA+4tAt5pefeuRX3wJ6qR7Kq161cVJUPqM6JBd91CfSJ/aXxiD3D/mkZ1O/ibb2AuVUl9ovoo7kkx6RcX0W+5040mJ71G6gDskRpCu/yuNETI/1AvIki3zSg/yKj/VJdpSxisT2tzHM0SWzMYdJn+YobdGCwjW2LS54SotOi3heGOMiF2HhVhlARpe6IcuM6VpotRDmsBb1GNfEKJlZ90hOi2VVb3TUk+U3kfuEOmT8upQfRZYtstxcR9Qh0jS2tD2O4TiiTsiLZdv0hTw3IqP6DD9yBTLUhjgXRM6f6806kq7xH4XmJzTVC1n3VWVcW8HH+MasMO/fvy/va6t7degmeTfLMSZHo/PixIkTta8b+kjv9evX5ZrheJUj2XkQj8o5dq0W8AP9xpE6eYinTzme1XGt4Hj5MD5Ki3Q9Mm4bW/q860dqub3v3r2rfe3oaHuaD+HUtmPHjpUrTDqnuqB5l8dXoH/8gJS5wX1FvI78+4aNvTErzPHjxzt9iZ3Ru9W7d++WL8HnBcag7f1zE9XOqXzkhVGKRkzvbPliHeM7DyQf/XD7+/slnNG7deqVodO73AsXLiz9o7Q29JV+ZtzYoj/9zsNAG6PaO+phEkN46dKl0n/VTriO7Y7mTn74m7eBZWzpm/zgpnf46E8fRWg38ZC/MegDNvbGrDD6k5+4+HRZiB4+fFgWu3n8yVD8+hm5Xb4gj6ADC2vUm10VRmaSB4cmeBCSkX/y5MlwAceIUUf80AojyVV6YPTFo0ePioGIf+J1WNAnGNLr16+XMDrTTh6YaE+XseWrdHbeGPUm2tp7+fLlUpc+mtMHehhj6iZt1q/+GaN4IoEuaus8d/m0jX7UeNOP9EnTwzPt1Vy5d+9eufaO6kmmELzGrCR9maO8n6QtuGrRHvpzWO8Qq8Xpszw5X7WADsPVIl6cwqqP66R1c8UpHrmQdcrhWD+6Rf0qI38gLJ1iPbioD3kypMc25TxRBxygZ6wHGZDrkj/nlR+HrEmIbcbRD5D7TiisNkrXLmOL7Jgn09benKb2i5hXfs0J0aXPYp5YPvZFU9kYpv7cznwfxHooH8PSnzI5b9ZFcatKF/2+4J8q4/Bow5hVxXN0+XDsyX9gEnfBqwK7Vo6yZ91pGrPudFkbfYxvjDHG9Bwbe2NMI7zr1H9gone4qwLvV3nvu7e319uvp42ZJz7GN2uD56gxxnyOj/GNMcYYY2NvjDHG9B0be2OMMabn2NgbY4wxPcfG3hhjjOk5NvbGGGNMz7GxN8YYY3qOjb0xxhjTc2zsjTHGmJ5jY2+MMcb0HBt7Y4wxpufY2BtzCPB/WfNjLouEOviJWuDHYggbY44mNvbGLJll/UobP4zBb9EDv/m+s7MzePv2bQkbY44WNvbGLBkM7zLgJ2rFd999N3j58uXg1KlTdYwx5ihhY2/MIcLROi7+XjxGWvHxFIA8HMvjSPvlX/7lA2V1VK/XA/fv3x/cvn27+K9cuVLCxpijiX/P3qwNfZqjtAVoD8b5/Pnzg93d3cGxY8cGGxsbw3aSj+N3uHr1armS79y5c8WP4eeoXkad/DHdGNN/uqyN3tkbc0hglAHDvLm5OXj16lU5Zo83LYYf2Jlvb2+XfDbkxphJsbE3ZgXI79LZ7fO0vre3V8cYY8z02NgbswLwlfyJEyeKHyN/7969ssPXzt4YY2bBxt6YQ4Jje2AXzxf6HNXz1TwG/unTpyVtHJwI7O/vFz9lgff//hM7Y0zEH+iZtaFvc5T2AMY9/jme4oE0jvK/+uqrwc9+9rMSx3t7PQzo4z7Y2toaPHjwYOwHejwIIJdvAPRhnzFmfemyNtrYm7XBc9QYYz6ny9roY3xjjDGm59jYG2OMMT3Hxt4YY4zpOTb2xhhjTM+xsTfGGGN6jo29McYY03Ns7I0xxpieY2NvjDHG9Bwbe2OMMabn2NgbY4wxPcfG3hhjjOk5NvbGGGNMz7GxN8YYY3qOjb0xxhjTc2zsjTHGmJ5jY29Mzdu3b8vvQuO+/PLLOnYxfP3118O6cN99912Jp17SgOui9TDL4fTp08Mx7hvrPE9/+OGHcv9F4jrAuMX2KY3rPFhq332sCV5jVpJFz9GNjY3a98m/vb1dhxbD7u5ua5t2dnZK2ubmZh1j1hXGkLFkTPvGus1T7rlx48C9v7e3V/y0jTKCME7pqwI6jcM7e2MqeFJ/8+ZNHRoMLl26NDhx4kQdWj5XrlwZVA8bdcisM0+fPh1UBqQO9Yt1m6f37t2rfc2wDlSGvA4VCzo4d+5cHRocSFs3bOyNqTh16lTt+3S0x03PQrZs2o57Oe7T0aKOEBXGkd4EsiQzl4cYH48T8SPz5s2bn6UBMlVOTpA3p/385z8f+kH1Si46EdYVF/shysy6REhn/KQfbYgySRMxHid0tBr7JhLHgv6JKB4X+1lIr1gu1tNWDtCpaUxiWyOxz9SXOrZu6xOlRyddVS+OOpuIfUMdqof8pMW2KZ/ywqj8YlwbYjxOIPPZs2eDq1evDvWnX6JfD2Vc1b+0O46XiPWo72OfqzxojLOsNtkL4dMGf/FHpMbMyjLmqI5cOcpbNPkYPx/38hpBx6Nc4/EjaVtbW8Wvo9SM5OOUl6vaxlFkPH4lHlnkUTnC5MOv40zS2+qOOqt+HXnm9sa8xMsBadKTclFn8kiXCHkkg3zoRpzKonNur1Cb1B6c2kg+9AHS29qHX3qRP6ZJN8JqA7KUpnLIVr0R4iijcpJBWfzSW1C/5Ec9JUNtR27sE9KadFFZgV/y4zhyVTxQnrIqzxXIJ38s35ZfKB7X1IZcjjTCgjK5XyQHcnmNY+4HrshRvYA8yVK+2JdAGeXJsmcBOeMY5uiS2ZjDZJlzdF434Si02ETiYqRFkDgtGk00yRFxcYG4WGmxiU5tpl7SBWlx4cppyAPKx36Lumc91T6IekHWOxJ1ycS0UfUpLTrVF/NBbC9+jU+kSV/CKoc/lsv9JNriIeoB6NzWVuqLbVPeUX3SNAaxHyKxPZJBnPQRTe1RPdnBqPaLUW2IfkFe6ZrHAT9xIvcBRJ2U3kVP8qk/cr2ii5wuxP5ow8f4xjRQ3ZiD58+f16HDg2PHaoEZvHr1qo45CEeA58+fr0Pjia8r9vf3B9VCwyoxdPfv369T27l+/frgxYsXxa9jVsm9du3agX5D92PHjtWh2dBR6Dx4//59OaqNbY/fbLRBnuPHj9ehH3n37t3wOFjkcOTkyZO170do24MHD+rQbNDvlaE50L747rkJxrAylIPXr1+XMG2K8wV0hI78SNs8ZT7Rpnis/eHDh3KNuuGgKf8kMKezzozzvEHHtvWhaZ4+evSovD4gPr9uWRY29sY0wII+arFeFiy+LKJ37tw58F5SC8qFCxfKot6VaJwxOApPAt8yYPSon4U01o9Bod9Iw/HQlBffSdG70ZcvXw6NwqwwvtlgdYG2NT148TEnBi/T9pEnRkkGX+95aRsPX/OAceGBZlLu3r07NEoPHz488PBHHB+4oWc2oG3zFGTM6R8MnR7+2uZezj8J9GmTEW56QJsF2spciO/bR81T7gviuFea+mgZ2Ngb0wCLGjvYRcMiOQ6M5fb29gF92CkQ1+UjQhYmLaxPnjwZGpSzZ8+WBZUHB9HlYyHyUL8W5bhjZHFGT6VF/fIijzGh/nF1ojP91OXUoSvSOdbdpe0XL14si7Vg0ab/1E7JoI20LbYfIwCksTO8ffv2MN80Dx6j4K9JMNoCHbsYmDh28aSD8hh4/rKgjaZ5Sn9ovEkD8iGrqe+b8k/C5cuXS1/qIUFt1njP8wFepxCqY9Q81SkFenS55xdCNaiF4DVmJVnkHOXdGvLl8vu16gY98G5vFnhHp3oiyFf8T3/606GfuquFbxhGN5zCsVyGfKQrT25DlIOrFsoD+lFvlE8/RV3kKNMkD4f+Ar/iKaO0mD+3DZ1iuvRBl0jUM+sRw6ozyyVPzpf7AmJc7M8sj3Ak6heJfaI86k+R9RjVVhHl4m9qb0yHKFdO/RzjlO+rr74axiEjz9OoK9eI8uHUt6PyQ5c25Hs5kvWTn7K5H8mb+z2mx3qa+lftIF+Uo7HNsmcBGeMY5uiS2ZjDxHN0cljAmhbNWUBmRotVUxpx2fCZ1WTU2JrVpcva6GN8Y0xnOLLkvW6Gd9Acv8ajY8Hx9azv7c3i4Qidj/IiHN/zusesP19g8Yun/kDEmFXFc3QyMMz6Ur/a3Xf62rwLGAXeVUY0Lrwrje+0odrV29ivCdxjka2trbl+K2EWQ5e10cberA2eo8YY8zld1kYf4xtjjDE9x8beGGOM6Tk29sYYY0zPsbE3xhhjeo6NvTHGGNNzbOyNMcaYnmNjb4wxxvQcG3tjjDGm59jYG2OMMT3Hxt4YY4zpOTb2xpiJ4b/nHPf76KSTbxr4/W/9JjnEMD/OMs/fJV8m/K6Afrt9FZllzI4a8R7gR6AI67f4V3GcbeyNMRPRxdCy6OlHeCaFRfLZs2d16BNPnz4d3L59uyyuTb+sty7wozJdfljmMAzFLGN2FOH/oj937lzx80NTgofS/ENRq4CNvTFmIrr8eh6/cre7u1uHJgNjuLm5WYcOwuK6s7NTh/pJPNFYJrOM2VGHX3YUPJTya4Grho29MUuG4z4cR9PA4k5Yizy7OuWJu2jSKcMxttIjkhMdeTM6qkWWdpDUQxxpOpLERchPXDZGUR+cjjJFlKdjzyakv/olgn65LWpHrlNxuKirZKitarv6W3ljX0BTf41DbeEayyAj6kQeHHpRD3n5iWB2hsSrXdIJl/XK/RvHow2VjeUyMY/6XnMAF8cJvXFqN/q2oXGQLPWP5KouoXic+oM8yIk6TjIHutStsVLe2F71eayzDeqQfIjjhVOdUWZOmwsfa4LXmJWkT3N0Y2PjY7UbqEMfP1Y7gXIlLrYTf7WTLQ4/TnmRsb29XfzVjqyxXBPVrrlcm8oQBzmNOlUvdca86CE/spVPMkiHKCODrsqncmobMgmrPeoLtYOr8nJVHcoHkoGjj9XPkhllAGmxTSC9uqAyyJQfvSgfdVUdsb7cT/iVpn6S/rjYv/hVFn9sUwSd1HbyN7WRslEP0lSX6ieOfNJF9eGX/Aj1KC9lVZ/kUl5+ID91AWmEVQYnvblK16h32xwYVzflY17AH9uHk27qD4UpLx2QKRlAvOTEOiUTBzFtHCozCu/sjTkEbty4MXjy5Enx8/R+7dq14ucotbovix+qm71cr1y5Mqhu/nK8rXe+cff0/v37A+8NqwVl8O7duzr0OexYOBKPdbXBToOdpurlmDLCsb7eXaJ/Rsf+J0+ebN0J3b17d/Do0aPiRxbtFLyvj20DwsQDde7v7xc/uknP48ePlytIRrX4l/w4+ujly5d1jtFM0l/ANwfsOtFHeja9nrh37165Ild9mKHveZfOTo/vFSqDUuIrA1KusX+ZE03zI4NOzCmgXEY7XskC9FNdcZx1bI3T3MjjJeI4IO/YsWMl/vnz5+V64sSJcgXmCv1IftrOiQdhylE+zwHRZQ6Mq1tjxT2nccH/4sWL4tcYjAO9kS8ZgGz1U6xTMnWNafPAxt6YQ4CbncULMDhxMQAdT3ZdVFi4yStjyrVtsWCxoW7ka1EfxYcPH2rfaJA37YdJXdvZFdo17mOzJiPXxKT9BRgUGei2o1jmAMaTPG2GWeNJ//BAIBeN2yxQr+ZhhHGUYcvQHnReNJp3sd24rnSZA5MwqfHVvfD69etyzfBaYJkfm9rYG3NIsBNi4cxGh4WUHR8LW9sOqQl2HtoFYQy0c8uQhmwMCAtS1/eCbbtyvdNEJm2aFk4nZkWG6MKFC2M/NuM0oIvBn6a/6HvKYPRZ0Nv6DmNPPmh6kJBR7/rA1RXqop/YdTJvMuiEbvF9N22gDA+n0nmRaOfd1ndtTDIHJoGTskkesrgXqD+PP32KfpxmMT+WhY29MYcER/csBGfPnq1jPi1U8XiyK5wEYLxYhHE6xmxCHxqxcEXjTL0yuI8fPy5Xdn6cOpAmY0RdwK7p5z//eTlanXVnjh5xl4NMdpxdH0QErwIwXm0POvHYHsN9+fLl4qcv9CpAddI+Fum2/hqFyqBH2wMbi776Usf5kB9AOE6+fv16HfpUblIDmKHtGKJRxou+ZAxUF6+d4mukRYNucd5B0wNRZtwcmIR4uvHw4cPh67aucO8wZ6LeyNGrhKVSLQyF4DVmJenjHK0Wgtr3I7RTrlrsyvWrr74axlUL7oEPiKqFbfiBUHZNkF/pyBIxXvJFlE8ZrpWxKGkK46TvT37yk2Ecrlrchv5YZ0RllQd9cvxv/MZvDP3EZ51jPbGc5ERdyStoi+LVdrWvqb+UXzpmYj3Kk+smPsaJqIt0iG1BvzzeuX/z/MjEdMmOdeByn+Q6lT/Kwp/bGclp8ucwskXMQ1uiXuQjTmHqz3Lkn7Ru8scy6sfcDzmc9Yn9g+4xXfpFPXFtfdEG+cbxBf9UGcuxQu01ZiXp2xxlx8RuSR/rzAKyOOqNuwXieF84jx1OH+CUgh30PPuDXfY8xs+sHpzOXLx4cS3Gt8va6GN8Yw4JDL2OkWfl0qVLte9HvvnmGxv6BaEPKOMrGGNWGRt7Y5YMO0wMBYx6ZzoJvKfU199yfKBkPsEubW9vr3wXMOl3AE1wgsJOaunvXc1S4B27vhuJHymuMz7GN2uD56gxxnxOl7XRO3tjjDGm59jYG2OMMT3Hxt4YY4zpOTb2xhhjTM+xsTfGGGN6jo29McYY03Ns7I0xxpieY2NvjDHG9Bwbe2OMMabn2NgbY4wxPcfG3hhjjOk5NvbGmPJDMcv4wQ9+BKjLD9Hwf33zy3KLgh86kXzajSOOenG5L+gfpZFvUvQreRF+glgy6RfqpJ6YxnUe0OfU0ZVR86HrXOk61pms66S6z5t516+x1TzS+C8cfggHgteYlcRzdDFsbW2Vvt3e3q5jFsPm5mapZ2dnp45pZmNjo+Tb3d2tY+YLcqXD3t7eZ+2Wnrl+ynTVqUluhnaSD3J9hHFKXzTMgS50nStdxzpDH1COvmljknGYlS76TEvsw1nvPXQch3f2xhxx7t+/P6gW5zq0OJ4+fTqoFs061M6bN29q32I4duxY+albdqj8xPDDhw8P7KyIq4xa+cngafnmm29qXzPs7vjJXVGtxQd+LjemLRpOHZ4/f16HRtN1rnQd6wx9UBnzOtTM3bt3a9/i6aLPNDD3Tpw4UfxdTknmgY29MYcAR3c62sXFGz4e7+KE8rNQxKPkePwcjZaOhTmGzLJGQZksC79k6PgbFEcdio/14dqOonM7KZdRvbF/8Mdyomt7MeYYVwwS8HCRHzAwahgr5I0i6qF2UubBgwflt9ClAzqpP/HLEMY6GMemVwSxn9QPbWOutmdZ6psM+Xmo4eGCcoQBmfKD+rxJhvTASb+MxrGtP2Mb3717V8d+IupOOrqis+LifRT7Qn0g3ZVGOcLqH/WZ5BFPuKktyovTfFc4l1Ef5vqAuXflypXiv337dnELp+zvK4LXmJWkL3O0WuBLW9QeHRXqaJJ0wbGpjlg5GgXlB455Y7/g55gThx+n8shtOy5EttIog1xBeemGXOlHfsVTJuovP3JVP5CGDCBedXKN7Zbu6BHrhKgf8ZSdtL2jUHn1rWRQh9oFpClMnqhX7E/ykBbbINnKr/K5bq7Uq7EHpQn86lPli32mvokyIjEvkC/KjOlqi9rGVTqrHkEZ4rK+TZCuvqTcKN1jXsi6o5P6Eydd8ZOXsmpH7P9Yh+RAbH+cs4C/qf3qQ1xTffNG9Y7CO3tjlox2kdUCUK4cFVaLw+DVq1dlt1AtCMOdAjvEeMTKzoH81b1bwtqlimpRKld2DdVCVOSyS4W462lif3+/1Ik85Ap0YCdFGsff6Kdd7L1798qVMjqGpn3yRzkZ9NKORkeaEfqH8sePHz9wrB31U5umae84qKNawMsOPZ5mADs2+lrtpB2Enzx5UsIR8iBnFJSvjEYd+hFeB7x8+XJ4CgHo1TTmQN+jG/2heaa+6Uo+gufY/NGjR8VPW+hjgd7qb8Ypg+6XLl06oG+GOU3b1ZeaUzBOd9oa75dnz54NXrx4MexPnOYYbUI29fAqZ1LYoV+4cGEoD9rarz5k3Ketb97Y2BuzAsh4vX//viwSLI5yWrRZVHQ0HI8EQUeZ0ShOCkYdomGTUUdu1Al9WejQjXqbDCvxkjkKFlEeIiZBx74s7osEY4Nxy+/vOWrObZ714aKJ/LAXaRpzjDJ9SXzTMfQ0dJlTzMembxzQn/KaR03wkDktjAPjE+dmfDCaF7SBucbDSxNt7V8lbOyNWQFYDNnd5l1sRDs60llE2dUACzs7FtLijmxS2EGxE4mLlh5CPnz4UK4ZjD31gh5A9I6S+KbdqsAYkY+d47idbwSjqt1i3GUuChmP+EDCWDU9aDSdUMwCY01788Nd25iziySOU5GmE4lp4SG0CeYgurDj1UlVhHFlXjFeoxj1MDAK+lsPw4tED+DxvoNx7V8lbOyNOSQ4tgcWOgwHu0gdZcbFPRpRwADLiLLYsBDNazejnWysn/D169fr0Ccjjc5cZUx09Kq2tD2wRPgKXsecXaE+ZC9jgY/khZx+AvVTHEPQQ9I84EQHI6O+HjXmmiP0adcHoabj9whzLT7o0E4eJNCDkwSMudrdhI69204arl27VmTKiLJ7ZozVlkx8uDlz5kzJG2XnB6MuxIcGjaXaGGG+xr7o0v6VoXpaKQSvMStJn+YobakW43LFVcakTvnxAyy5aoEp8dWiMoyjrIh5q4WwXL/66qthHHmrBXsYRk4kp0W90AUkF0d+yHlFjFM5ykQZtDe2R2lcYz7aLj8OYnosp7hx7W0j93scE0DOqHFSX0HU+9tvvx360S23CblZ35hOnfJTHmK62o7cKCeOU47LKJ28sS/V3ty/5IPYlpxHfvLEtCaijpQlf46X7mqj8sT+wRHO5bI+8uM0bgojV22MsomPZUnv2n75cXGeZFQfZSaBMuP4gn+qjMNjN2NWlT7NUdpS3dgT7WqNMaaJLmujj/GNMcaYnmNjb8yS0VfbfAg3rw+ojDFmFD7GN2uD56gxxnyOj/GNMcYYY2NvjDHG9B0be2OMMabn2NgbY4wxPcfG3hhjjOk5NvbGGGNMzznwp3fGGGOMWT/G/end0NgbY4wxpp/4GN8YY4zpOTb2xhhjTM+xsTfGGGN6jo29McYY03Ns7I0xxpieY2NvjDHG9JrB4P8HBkpRHX7zdq0AAAAASUVORK5CYII=;" vertex="1" parent="1">
          <mxGeometry x="1170" y="238" width="507" height="534" as="geometry" />
        </mxCell>
      </root>
    </mxGraphModel>
  </diagram>
</mxfile>
